<svg width="16" height="14" viewBox="0 0 16 14" fill="none" xmlns="http://www.w3.org/2000/svg">
<path d="M6.00163 7H6.00829M10.0016 7H10.0083M6.66829 9.66667C7.00163 9.86667 7.46829 10 8.00163 10C8.53496 10 9.00163 9.86667 9.33496 9.66667M12.6683 3.2C13.2723 3.95711 13.684 4.84918 13.8683 5.8C14.0937 5.90918 14.2838 6.07965 14.4169 6.29188C14.5499 6.50411 14.6204 6.74952 14.6204 7C14.6204 7.25048 14.5499 7.49589 14.4169 7.70812C14.2838 7.92035 14.0937 8.09082 13.8683 8.2C13.5805 9.54232 12.8411 10.7454 11.7734 11.6084C10.7058 12.4714 9.37445 12.9421 8.00163 12.9421C6.6288 12.9421 5.29749 12.4714 4.22983 11.6084C3.16218 10.7454 2.42276 9.54232 2.13496 8.2C1.90953 8.09082 1.71942 7.92035 1.58639 7.70812C1.45337 7.49589 1.38281 7.25048 1.38281 7C1.38281 6.74952 1.45337 6.50411 1.58639 6.29188C1.71942 6.07965 1.90953 5.90918 2.13496 5.8C2.41114 4.447 3.14556 3.23068 4.21431 2.35624C5.28307 1.48181 6.62073 1.00279 8.00163 1C9.33496 1 10.335 1.73333 10.335 2.66667C10.335 3.6 9.73496 4.33333 9.00163 4.33333C8.46829 4.33333 8.00163 4.06667 8.00163 3.66667" stroke="#292524" stroke-width="1.5" stroke-linecap="round" stroke-linejoin="round"/>
</svg>
