<svg width="14" height="12" viewBox="0 0 14 12" fill="none" xmlns="http://www.w3.org/2000/svg">
<path d="M5.25045 6H5.25628M8.75045 6H8.75628M5.83378 8.33333C6.12545 8.50833 6.53378 8.625 7.00045 8.625C7.46711 8.625 7.87545 8.50833 8.16711 8.33333M11.0838 2.675C11.6123 3.33747 11.9725 4.11804 12.1338 4.95C12.331 5.04553 12.4974 5.19469 12.6138 5.3804C12.7302 5.5661 12.7919 5.78083 12.7919 6C12.7919 6.21917 12.7302 6.4339 12.6138 6.6196C12.4974 6.80531 12.331 6.95447 12.1338 7.05C11.8819 8.22453 11.235 9.27718 10.3008 10.0323C9.36657 10.7874 8.20167 11.1994 7.00045 11.1994C5.79922 11.1994 4.63432 10.7874 3.70013 10.0323C2.76593 9.27718 2.11894 8.22453 1.86711 7.05C1.66986 6.95447 1.50351 6.80531 1.38712 6.6196C1.27072 6.4339 1.20898 6.21917 1.20898 6C1.20898 5.78083 1.27072 5.5661 1.38712 5.3804C1.50351 5.19469 1.66986 5.04553 1.86711 4.95C2.10877 3.76613 2.75138 2.70185 3.68654 1.93671C4.62171 1.17158 5.79216 0.752439 7.00045 0.75C8.16711 0.75 9.04211 1.39167 9.04211 2.20833C9.04211 3.025 8.51711 3.66667 7.87545 3.66667C7.40878 3.66667 7.00045 3.43333 7.00045 3.08333" stroke="#F59E0B" stroke-width="1.2" stroke-linecap="round" stroke-linejoin="round"/>
</svg>
