<svg width="14" height="14" viewBox="0 0 14 14" fill="none" xmlns="http://www.w3.org/2000/svg">
<path d="M12.3327 3.66699H6.33268M8.33268 10.3337H2.33268M8.33268 10.3337C8.33268 11.4382 9.22811 12.3337 10.3327 12.3337C11.4373 12.3337 12.3327 11.4382 12.3327 10.3337C12.3327 9.22909 11.4373 8.33366 10.3327 8.33366C9.22811 8.33366 8.33268 9.22909 8.33268 10.3337ZM5.66602 3.66699C5.66602 4.77156 4.77058 5.66699 3.66602 5.66699C2.56145 5.66699 1.66602 4.77156 1.66602 3.66699C1.66602 2.56242 2.56145 1.66699 3.66602 1.66699C4.77058 1.66699 5.66602 2.56242 5.66602 3.66699Z" stroke="#44403C" stroke-width="1.5" stroke-linecap="round" stroke-linejoin="round"/>
</svg>
