<svg width="24" height="24" viewBox="0 0 24 24" fill="none" xmlns="http://www.w3.org/2000/svg">
<rect width="24" height="24" rx="12" fill="white"/>
<path fill-rule="evenodd" clip-rule="evenodd" d="M7.52925 7.52827C7.7896 7.26792 8.21171 7.26792 8.47206 7.52827L12.0007 11.0569L15.5292 7.52827C15.7896 7.26792 16.2117 7.26792 16.4721 7.52827C16.7324 7.78862 16.7324 8.21073 16.4721 8.47108L12.9435 11.9997L16.4721 15.5283C16.7324 15.7886 16.7324 16.2107 16.4721 16.4711C16.2117 16.7314 15.7896 16.7314 15.5292 16.4711L12.0007 12.9425L8.47206 16.4711C8.21171 16.7314 7.7896 16.7314 7.52925 16.4711C7.2689 16.2107 7.2689 15.7886 7.52925 15.5283L11.0578 11.9997L7.52925 8.47108C7.2689 8.21073 7.2689 7.78862 7.52925 7.52827Z" fill="#354052"/>
</svg>
