<svg width="22" height="22" viewBox="0 0 22 22" fill="none" xmlns="http://www.w3.org/2000/svg">
<path d="M9.0001 20.9001V13.0001M9.0001 13.0001L1.1001 8.1001M9.0001 13.0001L20.9 6.1001M13 18.7999V10.7M17 16.4999V8.3999M21 6.6999C21 6.0999 20.6 5.4999 20.2 5.1999L13.9 1.2999C13.6409 1.15263 13.348 1.0752 13.05 1.0752C12.752 1.0752 12.4591 1.15263 12.2 1.2999L1.9 7.2999C1.4 7.4999 1 8.0999 1 8.6999V15.2999C1 15.7999 1.4 16.4999 1.8 16.7999L8.1 20.6999C8.35908 20.8472 8.65198 20.9246 8.95 20.9246C9.24802 20.9246 9.54092 20.8472 9.8 20.6999L20.1 14.6999C20.6 14.3999 21 13.6999 21 13.1999V6.6999Z" stroke="black" stroke-width="2" stroke-linecap="round" stroke-linejoin="round"/>
</svg>
