<svg width="24" height="24" viewBox="0 0 24 24" fill="none" xmlns="http://www.w3.org/2000/svg">
<path d="M2.8859 12.1316C2.9078 12.1671 2.93376 12.2076 2.96945 12.2632C3.51543 13.1142 4.59738 14.6077 6.14707 15.8809C7.6945 17.1523 9.66058 18.1667 12 18.1667C14.3394 18.1667 16.3055 17.1523 17.8529 15.8809C19.4026 14.6077 20.4846 13.1142 21.0305 12.2632L21.7319 12.7132L21.0306 12.2632C21.0662 12.2076 21.0922 12.1671 21.1141 12.1316C21.1355 12.0968 21.1478 12.0753 21.1554 12.0608C21.1611 12.0501 21.1635 12.0447 21.1648 12.0413C21.1649 12.0406 21.1649 12.0399 21.165 12.0391C21.1659 12.0296 21.1667 12.0159 21.1667 12C21.1667 11.9841 21.1659 11.9704 21.165 11.9609L2.8859 12.1316ZM2.8859 12.1316C2.86447 12.0968 2.85222 12.0753 2.84455 12.0608M2.8859 12.1316L2.84455 12.0608M2.84455 12.0608C2.83889 12.0501 2.83646 12.0447 2.83522 12.0413M2.84455 12.0608L2.83522 12.0413M2.83522 12.0413C2.83515 12.0406 2.83507 12.0399 2.835 12.0391C2.83409 12.0296 2.83333 12.0159 2.83333 12C2.83333 11.9841 2.83409 11.9704 2.835 11.9609L2.83522 12.0413ZM21.1662 12.0361C21.1663 12.0356 21.1664 12.035 21.1666 12.0344L21.1662 12.0361ZM21.1662 12.0361C21.166 12.0368 21.1659 12.0375 21.1657 12.0383L21.1662 12.0361ZM2.83344 12.0344C2.83376 12.0358 2.83404 12.0371 2.83429 12.0382L2.8338 12.0361C2.83369 12.0356 2.83357 12.035 2.83344 12.0344ZM2.8338 11.9639C2.83396 11.9632 2.83411 11.9625 2.83431 11.9617L2.83344 11.9656C2.83357 11.965 2.83369 11.9644 2.8338 11.9639ZM2.83522 11.9587C2.83646 11.9553 2.83889 11.9499 2.84455 11.9392C2.85222 11.9247 2.86447 11.9032 2.8859 11.8684C2.9078 11.8329 2.93376 11.7924 2.96945 11.7368C3.51543 10.8858 4.59738 9.39228 6.14707 8.11905C7.69449 6.84768 9.66058 5.83333 12 5.83333C14.3394 5.83333 16.3055 6.84768 17.8529 8.11905C19.4026 9.39228 20.4846 10.8858 21.0305 11.7368L21.7319 11.2868L21.0306 11.7368C21.0662 11.7924 21.0922 11.8329 21.1141 11.8684C21.1355 11.9032 21.1478 11.9247 21.1554 11.9392C21.1611 11.9499 21.1635 11.9553 21.1648 11.9587L2.83522 11.9587ZM21.1657 11.9618C21.1659 11.9625 21.166 11.9632 21.1662 11.9639C21.1663 11.9642 21.1663 11.9645 21.1664 11.9647C21.1661 11.9637 21.1659 11.9627 21.1657 11.9618Z" stroke="#344054" stroke-width="1.66667" stroke-linecap="round" stroke-linejoin="round"/>
<circle cx="12" cy="12" r="2.25" stroke="#344054" stroke-width="1.5"/>
</svg>
