<svg width="16" height="16" viewBox="0 0 16 16" fill="none" xmlns="http://www.w3.org/2000/svg">
<g clip-path="url(#clip0_1240_22029)">
<path d="M10.0007 3.33236L12.6673 5.99902M14.1166 4.54029C14.4691 4.1879 14.6671 3.70993 14.6672 3.21152C14.6673 2.71311 14.4693 2.23509 14.1169 1.88262C13.7646 1.53015 13.2866 1.33209 12.7882 1.33203C12.2898 1.33197 11.8117 1.5299 11.4593 1.88229L2.56194 10.7816C2.40715 10.936 2.29268 11.126 2.22861 11.335L1.34794 14.2363C1.33071 14.2939 1.32941 14.3552 1.34417 14.4135C1.35894 14.4719 1.38922 14.5251 1.4318 14.5676C1.47439 14.6101 1.52769 14.6403 1.58605 14.655C1.6444 14.6697 1.70565 14.6683 1.76327 14.651L4.66527 13.771C4.87405 13.7075 5.06406 13.5937 5.21861 13.4396L14.1166 4.54029Z" stroke="white" stroke-width="1.5" stroke-linecap="round" stroke-linejoin="round"/>
</g>
<defs>
<clipPath id="clip0_1240_22029">
<rect width="16" height="16" fill="white"/>
</clipPath>
</defs>
</svg>
