<svg width="14" height="14" viewBox="0 0 14 14" fill="none" xmlns="http://www.w3.org/2000/svg">
<path d="M1.20248 7.20394C1.15386 7.07297 1.15386 6.92891 1.20248 6.79794C1.67597 5.64986 2.47969 4.66822 3.51176 3.97747C4.54383 3.28672 5.75775 2.91797 6.99964 2.91797C8.24153 2.91797 9.45546 3.28672 10.4875 3.97747C11.5196 4.66822 12.3233 5.64986 12.7968 6.79794C12.8454 6.92891 12.8454 7.07297 12.7968 7.20394C12.3233 8.35203 11.5196 9.33367 10.4875 10.0244C9.45546 10.7152 8.24153 11.0839 6.99964 11.0839C5.75775 11.0839 4.54383 10.7152 3.51176 10.0244C2.47969 9.33367 1.67597 8.35203 1.20248 7.20394Z" stroke="#15803D" stroke-width="1.2" stroke-linecap="round" stroke-linejoin="round"/>
<path d="M6.99963 8.75087C7.96613 8.75087 8.74963 7.96737 8.74963 7.00087C8.74963 6.03438 7.96613 5.25087 6.99963 5.25087C6.03314 5.25087 5.24963 6.03438 5.24963 7.00087C5.24963 7.96737 6.03314 8.75087 6.99963 8.75087Z" stroke="#15803D" stroke-width="1.2" stroke-linecap="round" stroke-linejoin="round"/>
</svg>
