<svg width="16" height="16" viewBox="0 0 16 16" fill="none" xmlns="http://www.w3.org/2000/svg">
<path fill-rule="evenodd" clip-rule="evenodd" d="M10 3.33333C9.63181 3.33333 9.33333 3.03486 9.33333 2.66667C9.33333 2.29848 9.63181 2 10 2H13.3333C13.7015 2 14 2.29848 14 2.66667V6C14 6.36819 13.7015 6.66667 13.3333 6.66667C12.9651 6.66667 12.6667 6.36819 12.6667 6V4.27614L7.13807 9.80474C6.87772 10.0651 6.45561 10.0651 6.19526 9.80474C5.93491 9.54439 5.93491 9.12228 6.19526 8.86193L11.7239 3.33333H10ZM2.58579 4.58579C2.96086 4.21071 3.46957 4 4 4H7.33333C7.70152 4 8 4.29848 8 4.66667C8 5.03486 7.70152 5.33333 7.33333 5.33333H4C3.82319 5.33333 3.65362 5.40357 3.5286 5.5286C3.40357 5.65362 3.33333 5.82319 3.33333 6V12C3.33333 12.1768 3.40357 12.3464 3.5286 12.4714C3.65362 12.5964 3.82319 12.6667 4 12.6667H10C10.1768 12.6667 10.3464 12.5964 10.4714 12.4714C10.5964 12.3464 10.6667 12.1768 10.6667 12V8.66667C10.6667 8.29848 10.9651 8 11.3333 8C11.7015 8 12 8.29848 12 8.66667V12C12 12.5304 11.7893 13.0391 11.4142 13.4142C11.0391 13.7893 10.5304 14 10 14H4C3.46957 14 2.96086 13.7893 2.58579 13.4142C2.21071 13.0391 2 12.5304 2 12V6C2 5.46957 2.21071 4.96086 2.58579 4.58579Z" fill="#292524"/>
</svg>
