<svg width="14" height="16" viewBox="0 0 14 16" fill="none" xmlns="http://www.w3.org/2000/svg">
<path d="M8.33268 1.33301V3.99967C8.33268 4.3533 8.47316 4.69244 8.72321 4.94248C8.97325 5.19253 9.31239 5.33301 9.66602 5.33301H12.3327M4.33268 8.66634H5.66602M8.33268 8.66634H9.66602M4.33268 11.333H5.66602M8.33268 11.333H9.66602M8.99935 1.33301H2.99935C2.64573 1.33301 2.30659 1.47348 2.05654 1.72353C1.80649 1.97358 1.66602 2.31272 1.66602 2.66634V13.333C1.66602 13.6866 1.80649 14.0258 2.05654 14.2758C2.30659 14.5259 2.64573 14.6663 2.99935 14.6663H10.9993C11.353 14.6663 11.6921 14.5259 11.9422 14.2758C12.1922 14.0258 12.3327 13.6866 12.3327 13.333V4.66634L8.99935 1.33301Z" stroke="#15803D" stroke-width="1.5" stroke-linecap="round" stroke-linejoin="round"/>
</svg>
