<svg width="12" height="12" viewBox="0 0 12 12" fill="none" xmlns="http://www.w3.org/2000/svg">
<path fill-rule="evenodd" clip-rule="evenodd" d="M0.390524 0.390524C0.640573 0.140476 0.979711 0 1.33333 0H4C4.35362 0 4.69276 0.140476 4.94281 0.390524C5.19286 0.640573 5.33333 0.979711 5.33333 1.33333V4C5.33333 4.35362 5.19286 4.69276 4.94281 4.94281C4.69276 5.19286 4.35362 5.33333 4 5.33333H1.33333C0.979711 5.33333 0.640573 5.19286 0.390524 4.94281C0.140476 4.69276 0 4.35362 0 4V1.33333C0 0.979711 0.140476 0.640573 0.390524 0.390524ZM4 1.33333L1.33333 1.33333L1.33333 4H4V1.33333ZM7.05719 0.390524C7.30724 0.140476 7.64638 0 8 0H10.6667C11.0203 0 11.3594 0.140476 11.6095 0.390524C11.8595 0.640574 12 0.979713 12 1.33333V4C12 4.35362 11.8595 4.69276 11.6095 4.94281C11.3594 5.19286 11.0203 5.33333 10.6667 5.33333H8C7.64638 5.33333 7.30724 5.19286 7.05719 4.94281C6.80714 4.69276 6.66667 4.35362 6.66667 4V1.33333C6.66667 0.979711 6.80714 0.640573 7.05719 0.390524ZM10.6667 1.33333H8V4H10.6667V1.33333ZM0.390524 7.05719C0.640573 6.80714 0.979711 6.66667 1.33333 6.66667H4C4.35362 6.66667 4.69276 6.80714 4.94281 7.05719C5.19286 7.30724 5.33333 7.64638 5.33333 8V10.6667C5.33333 11.0203 5.19286 11.3594 4.94281 11.6095C4.69276 11.8595 4.35362 12 4 12H1.33333C0.979713 12 0.640574 11.8595 0.390524 11.6095C0.140476 11.3594 0 11.0203 0 10.6667V8C0 7.64638 0.140476 7.30724 0.390524 7.05719ZM4 8H1.33333L1.33333 10.6667H4V8ZM9.33333 6.66667C9.70152 6.66667 10 6.96514 10 7.33333V8.66667H11.3333C11.7015 8.66667 12 8.96514 12 9.33333C12 9.70152 11.7015 10 11.3333 10H10V11.3333C10 11.7015 9.70152 12 9.33333 12C8.96514 12 8.66667 11.7015 8.66667 11.3333V10H7.33333C6.96514 10 6.66667 9.70152 6.66667 9.33333C6.66667 8.96514 6.96514 8.66667 7.33333 8.66667H8.66667V7.33333C8.66667 6.96514 8.96514 6.66667 9.33333 6.66667Z" fill="white"/>
</svg>
