<svg width="16" height="13" viewBox="0 0 16 13" fill="none" xmlns="http://www.w3.org/2000/svg">
<path d="M8.00065 1V9M8.00065 9L5.33398 6.33333M8.00065 9L10.6673 6.33333M5.33398 2.33333H2.66732C2.3137 2.33333 1.97456 2.47381 1.72451 2.72386C1.47446 2.97391 1.33398 3.31304 1.33398 3.66667V10.3333C1.33398 10.687 1.47446 11.0261 1.72451 11.2761C1.97456 11.5262 2.3137 11.6667 2.66732 11.6667H13.334C13.6876 11.6667 14.0267 11.5262 14.2768 11.2761C14.5268 11.0261 14.6673 10.687 14.6673 10.3333V3.66667C14.6673 3.31304 14.5268 2.97391 14.2768 2.72386C14.0267 2.47381 13.6876 2.33333 13.334 2.33333H10.6673" stroke="#44403C" stroke-width="1.5" stroke-linecap="round" stroke-linejoin="round"/>
</svg>
