<svg width="49" height="48" viewBox="0 0 49 48" fill="none" xmlns="http://www.w3.org/2000/svg">
<rect x="2.5" y="2" width="44" height="44" rx="22" fill="#EF4444"/>
<rect x="2.5" y="2" width="44" height="44" rx="22" stroke="#FEE2E2" stroke-width="4"/>
<path d="M19.5 23V19C19.5 17.6739 20.0268 16.4021 20.9645 15.4645C21.9021 14.5268 23.1739 14 24.5 14C25.8261 14 27.0979 14.5268 28.0355 15.4645C28.9732 16.4021 29.5 17.6739 29.5 19V23M17.5 23H31.5C32.6046 23 33.5 23.8954 33.5 25V32C33.5 33.1046 32.6046 34 31.5 34H17.5C16.3954 34 15.5 33.1046 15.5 32V25C15.5 23.8954 16.3954 23 17.5 23Z" stroke="white" stroke-width="2" stroke-linecap="round" stroke-linejoin="round"/>
</svg>
