<svg width="202" height="204" viewBox="0 0 202 204" fill="none" xmlns="http://www.w3.org/2000/svg">
<path fill-rule="evenodd" clip-rule="evenodd" d="M156.521 69.7448C156.732 69.6253 156.991 69.6253 157.202 69.7448L170.315 77.1773L183.298 84.8117C183.507 84.9346 183.636 85.1583 183.638 85.4008L183.758 100.473L183.638 115.535C183.636 115.777 183.507 116.001 183.298 116.124L170.305 123.764L157.202 131.191C156.991 131.31 156.732 131.31 156.521 131.191L143.408 123.758L130.425 116.124C130.216 116.001 130.087 115.777 130.085 115.535L129.965 100.462L130.085 85.4008C130.087 85.1583 130.216 84.9346 130.425 84.8117L143.418 77.1718L156.521 69.7448ZM144.103 78.3691L131.461 85.8026L131.344 100.468L131.461 115.133L144.103 122.566L156.861 129.798L169.62 122.566L182.262 115.133L182.379 100.468L182.262 85.8026L169.62 78.3691L156.861 71.1375L144.103 78.3691Z" fill="#D6D3D1" class="svg-elem-1"></path>
<path fill-rule="evenodd" clip-rule="evenodd" d="M43.4179 69.7448C43.6288 69.6253 43.8871 69.6253 44.098 69.7448L57.211 77.1773L70.1947 84.8117C70.4037 84.9346 70.5328 85.1583 70.5347 85.4008L70.6546 100.473L70.5347 115.535C70.5328 115.777 70.4037 116.001 70.1947 116.124L57.2015 123.764L44.098 131.191C43.8871 131.31 43.6288 131.31 43.4179 131.191L30.3049 123.758L17.3212 116.124C17.1122 116.001 16.9831 115.777 16.9811 115.535L16.8613 100.462L16.9811 85.4008C16.9831 85.1583 17.1122 84.9346 17.3212 84.8117L30.3144 77.1718L43.4179 69.7448ZM30.9993 78.3691L18.3573 85.8026L18.2407 100.468L18.3573 115.133L30.9993 122.566L43.7579 129.798L56.5166 122.566L69.1586 115.133L69.2752 100.468L69.1586 85.8026L56.5166 78.3691L43.7579 71.1375L30.9993 78.3691Z" fill="#D6D3D1" class="svg-elem-2"></path>
<path fill-rule="evenodd" clip-rule="evenodd" d="M71.0058 21.4689C71.2167 21.3494 71.475 21.3494 71.6859 21.4689L84.7989 28.9014L97.7826 36.5359C97.9916 36.6588 98.1207 36.8824 98.1226 37.1249L98.2424 52.1973L98.1226 67.2587C98.1207 67.5012 97.9916 67.7248 97.7826 67.8477L84.7894 75.4877L71.6859 82.9147C71.475 83.0342 71.2167 83.0342 71.0058 82.9147L57.8928 75.4822L44.9091 67.8477C44.7001 67.7248 44.571 67.5012 44.569 67.2587L44.4492 52.1863L44.569 37.1249C44.571 36.8824 44.7001 36.6588 44.9091 36.5359L57.9023 28.8959L71.0058 21.4689ZM58.5872 30.0932L45.9452 37.5267L45.8286 52.1918L45.9452 66.8569L58.5872 74.2903L71.3458 81.5219L84.1045 74.2903L96.7465 66.8569L96.863 52.1918L96.7465 37.5267L84.1045 30.0932L71.3458 22.8617L58.5872 30.0932Z" fill="#D6D3D1" class="svg-elem-3"></path>
<path fill-rule="evenodd" clip-rule="evenodd" d="M71.0058 118.021C71.2167 117.901 71.475 117.901 71.6859 118.021L84.7989 125.453L97.7826 133.088C97.9916 133.211 98.1207 133.434 98.1226 133.677L98.2424 148.749L98.1226 163.81C98.1207 164.053 97.9916 164.277 97.7826 164.399L84.7894 172.039L71.6859 179.466C71.475 179.586 71.2167 179.586 71.0058 179.466L57.8928 172.034L44.9091 164.399C44.7001 164.277 44.571 164.053 44.569 163.81L44.4492 148.738L44.569 133.677C44.571 133.434 44.7001 133.211 44.9091 133.088L57.9023 125.448L71.0058 118.021ZM58.5872 126.645L45.9452 134.078L45.8286 148.744L45.9452 163.409L58.5872 170.842L71.3458 178.074L84.1045 170.842L96.7465 163.409L96.863 148.744L96.7465 134.078L84.1045 126.645L71.3458 119.413L58.5872 126.645Z" fill="#D6D3D1" class="svg-elem-4"></path>
<path fill-rule="evenodd" clip-rule="evenodd" d="M184.108 32.5034C184.319 32.3838 184.578 32.3838 184.789 32.5034L193.074 37.1995L201.274 42.0213C201.483 42.1442 201.612 42.3679 201.614 42.6104L201.69 52.1338L201.614 61.6463C201.612 61.8888 201.483 62.1124 201.274 62.2353L193.064 67.0626L184.789 71.7533C184.578 71.8728 184.319 71.8728 184.108 71.7533L175.823 67.0571L167.623 62.2353C167.414 62.1124 167.285 61.8888 167.283 61.6463L167.207 52.1228L167.283 42.6104C167.285 42.3679 167.414 42.1442 167.623 42.0213L175.833 37.1941L184.108 32.5034ZM176.517 38.3914L168.659 43.0122L168.586 52.1283L168.659 61.2444L176.517 65.8652L184.448 70.3606L192.38 65.8652L200.238 61.2444L200.311 52.1283L200.238 43.0122L192.38 38.3914L184.448 33.8961L176.517 38.3914Z" fill="#D6D3D1" class="svg-elem-5"></path>
<path fill-rule="evenodd" clip-rule="evenodd" d="M15.8356 131.812C16.045 131.695 16.3004 131.695 16.5098 131.812L24.1055 136.068L31.6224 140.438C31.8331 140.561 31.9635 140.785 31.9654 141.029L32.0348 149.661L31.9654 158.281C31.9635 158.525 31.8331 158.75 31.6224 158.872L24.0961 163.247L16.5098 167.498C16.3004 167.616 16.045 167.616 15.8356 167.498L8.23983 163.242L0.722985 158.872C0.512315 158.75 0.381911 158.525 0.379951 158.281L0.310547 149.65L0.379951 141.029C0.381911 140.785 0.512315 140.561 0.722985 140.438L8.2493 136.063L15.8356 131.812ZM8.92835 137.264L1.75606 141.433L1.68995 149.655L1.75606 157.877L8.92836 162.047L16.1727 166.106L23.417 162.047L30.5893 157.877L30.6554 149.655L30.5893 141.433L23.417 137.264L16.1727 133.204L8.92835 137.264Z" fill="#D6D3D1" class="svg-elem-6"></path>
<g filter="url(#filter0_d_300_1612)">
<path d="M98.9315 70.3447L112.035 77.7718L125.019 85.4062L125.138 100.468L125.019 115.529L112.035 123.163L98.9315 130.59L85.8281 123.163L72.8443 115.529L72.7246 100.468L72.8443 85.4062L85.8281 77.7718L98.9315 70.3447Z" fill="white" class="svg-elem-7"></path>
<path fill-rule="evenodd" clip-rule="evenodd" d="M107.497 93.9105C107.791 94.2046 107.791 94.6814 107.497 94.9755L96.4517 106.021C96.3105 106.162 96.1189 106.241 95.9192 106.241C95.7195 106.241 95.5279 106.162 95.3867 106.021L90.3662 101C90.0721 100.706 90.0721 100.229 90.3662 99.9351C90.6603 99.641 91.1371 99.641 91.4312 99.9351L95.9192 104.423L106.432 93.9105C106.726 93.6164 107.203 93.6164 107.497 93.9105Z" fill="white" class="svg-elem-8"></path>
<path fill-rule="evenodd" clip-rule="evenodd" d="M98.5917 69.7448C98.8027 69.6253 99.0609 69.6253 99.2718 69.7448L112.385 77.1773L125.369 84.8117C125.578 84.9346 125.707 85.1583 125.709 85.4008L125.828 100.473L125.709 115.535C125.707 115.777 125.578 116.001 125.369 116.124L112.375 123.764L99.2718 131.191C99.0609 131.31 98.8027 131.31 98.5917 131.191L85.4787 123.758L72.495 116.124C72.286 116.001 72.1569 115.777 72.155 115.535L72.0352 100.462L72.155 85.4008C72.1569 85.1583 72.286 84.9346 72.495 84.8117L85.4882 77.1718L98.5917 69.7448ZM86.1732 78.3691L73.5311 85.8026L73.4146 100.468L73.5311 115.133L86.1731 122.566L98.9318 129.798L111.69 122.566L124.332 115.133L124.449 100.468L124.332 85.8026L111.69 78.3691L98.9318 71.1375L86.1732 78.3691ZM105.944 93.4229C106.508 92.8595 107.421 92.8595 107.985 93.4229C108.548 93.9864 108.548 94.8998 107.985 95.4633L96.9396 106.508C96.6691 106.779 96.3021 106.931 95.9195 106.931C95.5368 106.931 95.1699 106.779 94.8993 106.508L89.8788 101.488C89.3154 100.924 89.3154 100.011 89.8788 99.4475C90.4423 98.8841 91.3558 98.8841 91.9192 99.4475L95.9195 103.448L105.944 93.4229ZM107.009 94.3983C106.985 94.3735 106.944 94.3735 106.92 94.3983L96.4071 104.911C96.1378 105.18 95.7012 105.18 95.4318 104.911L90.9438 100.423C90.9191 100.398 90.8789 100.398 90.8542 100.423C90.8294 100.448 90.8294 100.488 90.8542 100.513L95.8746 105.533C95.8865 105.545 95.9027 105.552 95.9195 105.552C95.9363 105.552 95.9524 105.545 95.9643 105.533L107.009 94.4879C107.034 94.4632 107.034 94.423 107.009 94.3983Z" fill="url(#paint0_linear_300_1612)" class="svg-elem-9"></path>
<path d="M127.896 23.4482L141 30.8753L153.984 38.5097L154.103 53.5711L153.984 68.6326L141 76.267L127.896 83.694L114.793 76.267L101.809 68.6326L101.689 53.5711L101.809 38.5097L114.793 30.8753L127.896 23.4482Z" fill="white" class="svg-elem-10"></path>
<path fill-rule="evenodd" clip-rule="evenodd" d="M136.462 47.014C136.756 47.3081 136.756 47.785 136.462 48.079L125.417 59.1241C125.275 59.2653 125.084 59.3447 124.884 59.3447C124.684 59.3447 124.493 59.2653 124.352 59.1241L119.331 54.1036C119.037 53.8095 119.037 53.3327 119.331 53.0386C119.625 52.7445 120.102 52.7445 120.396 53.0386L124.884 57.5266L135.397 47.014C135.691 46.7199 136.168 46.7199 136.462 47.014Z" fill="white" class="svg-elem-11"></path>
<path fill-rule="evenodd" clip-rule="evenodd" d="M127.557 22.8482C127.767 22.7287 128.026 22.7287 128.237 22.8482L141.35 30.2807L154.333 37.9151C154.542 38.038 154.671 38.2617 154.673 38.5042L154.793 53.5766L154.673 68.638C154.671 68.8805 154.542 69.1041 154.333 69.227L141.34 76.867L128.237 84.2939C128.026 84.4135 127.767 84.4135 127.557 84.2939L114.444 76.8615L101.46 69.227C101.251 69.1041 101.122 68.8805 101.12 68.638L101 53.5656L101.12 38.5042C101.122 38.2617 101.251 38.038 101.46 37.9151L114.453 30.2752L127.557 22.8482ZM115.138 31.4725L102.496 38.906L102.379 53.5711L102.496 68.2361L115.138 75.6696L127.897 82.9012L140.655 75.6696L153.297 68.2361L153.414 53.5711L153.297 38.906L140.655 31.4725L127.897 24.2409L115.138 31.4725ZM134.909 46.5263C135.473 45.9629 136.386 45.9629 136.95 46.5263C137.513 47.0898 137.513 48.0032 136.95 48.5667L125.904 59.6117C125.634 59.8823 125.267 60.0343 124.884 60.0343C124.502 60.0343 124.135 59.8823 123.864 59.6117L118.844 54.5912C118.28 54.0278 118.28 53.1143 118.844 52.5509C119.407 51.9875 120.321 51.9875 120.884 52.5509L124.884 56.5512L134.909 46.5263ZM135.974 47.5017C135.949 47.4769 135.909 47.4769 135.885 47.5017L125.372 58.0142C125.103 58.2835 124.666 58.2835 124.397 58.0142L119.909 53.5262C119.884 53.5015 119.844 53.5015 119.819 53.5262C119.794 53.551 119.794 53.5912 119.819 53.6159L124.839 58.6364C124.851 58.6483 124.868 58.655 124.884 58.655C124.901 58.655 124.917 58.6483 124.929 58.6364L135.974 47.5913C135.999 47.5666 135.999 47.5264 135.974 47.5017Z" fill="url(#paint1_linear_300_1612)" class="svg-elem-12"></path>
<path d="M127.896 118.621L141 126.048L153.984 133.682L154.103 148.743L153.984 163.805L141 171.439L127.896 178.866L114.793 171.439L101.809 163.805L101.689 148.743L101.809 133.682L114.793 126.048L127.896 118.621Z" fill="white" class="svg-elem-13"></path>
<path fill-rule="evenodd" clip-rule="evenodd" d="M136.462 142.186C136.756 142.48 136.756 142.957 136.462 143.251L125.417 154.296C125.275 154.438 125.084 154.517 124.884 154.517C124.684 154.517 124.493 154.438 124.352 154.296L119.331 149.276C119.037 148.982 119.037 148.505 119.331 148.211C119.625 147.917 120.102 147.917 120.396 148.211L124.884 152.699L135.397 142.186C135.691 141.892 136.168 141.892 136.462 142.186Z" fill="white" class="svg-elem-14"></path>
<path fill-rule="evenodd" clip-rule="evenodd" d="M127.557 118.021C127.767 117.901 128.026 117.901 128.237 118.021L141.35 125.453L154.333 133.088C154.542 133.21 154.671 133.434 154.673 133.677L154.793 148.749L154.673 163.81C154.671 164.053 154.542 164.276 154.333 164.399L141.34 172.039L128.237 179.466C128.026 179.586 127.767 179.586 127.557 179.466L114.444 172.034L101.46 164.399C101.251 164.276 101.122 164.053 101.12 163.81L101 148.738L101.12 133.677C101.122 133.434 101.251 133.21 101.46 133.088L114.453 125.448L127.557 118.021ZM115.138 126.645L102.496 134.078L102.379 148.743L102.496 163.409L115.138 170.842L127.897 178.074L140.655 170.842L153.297 163.409L153.414 148.743L153.297 134.078L140.655 126.645L127.897 119.413L115.138 126.645ZM134.909 141.699C135.473 141.135 136.386 141.135 136.95 141.699C137.513 142.262 137.513 143.176 136.95 143.739L125.904 154.784C125.634 155.055 125.267 155.207 124.884 155.207C124.502 155.207 124.135 155.055 123.864 154.784L118.844 149.764C118.28 149.2 118.28 148.287 118.844 147.723C119.407 147.16 120.321 147.16 120.884 147.723L124.884 151.724L134.909 141.699ZM135.974 142.674C135.949 142.649 135.909 142.649 135.885 142.674L125.372 153.187C125.103 153.456 124.666 153.456 124.397 153.187L119.909 148.699C119.884 148.674 119.844 148.674 119.819 148.699C119.794 148.723 119.794 148.764 119.819 148.788L124.839 153.809C124.851 153.821 124.868 153.827 124.884 153.827C124.901 153.827 124.917 153.821 124.929 153.809L135.974 142.764C135.999 142.739 135.999 142.699 135.974 142.674Z" fill="url(#paint2_linear_300_1612)" class="svg-elem-15"></path>
</g>
<defs>
<filter id="filter0_d_300_1612" x="52.0352" y="6.75854" width="122.758" height="196.797" filterUnits="userSpaceOnUse" color-interpolation-filters="sRGB">
<feFlood flood-opacity="0" result="BackgroundImageFix"></feFlood>
<feColorMatrix in="SourceAlpha" type="matrix" values="0 0 0 0 0 0 0 0 0 0 0 0 0 0 0 0 0 0 127 0" result="hardAlpha"></feColorMatrix>
<feOffset dy="4"></feOffset>
<feGaussianBlur stdDeviation="10"></feGaussianBlur>
<feComposite in2="hardAlpha" operator="out"></feComposite>
<feColorMatrix type="matrix" values="0 0 0 0 0.929412 0 0 0 0 0.305882 0 0 0 0 0.419608 0 0 0 0.25 0"></feColorMatrix>
<feBlend mode="normal" in2="BackgroundImageFix" result="effect1_dropShadow_300_1612"></feBlend>
<feBlend mode="normal" in="SourceGraphic" in2="effect1_dropShadow_300_1612" result="shape"></feBlend>
</filter>
<linearGradient id="paint0_linear_300_1612" x1="98.9318" y1="69.6552" x2="98.9318" y2="131.28" gradientUnits="userSpaceOnUse">
<stop stop-color="#E3173C"></stop>
<stop offset="1" stop-color="#F495A6"></stop>
</linearGradient>
<linearGradient id="paint1_linear_300_1612" x1="127.897" y1="22.7585" x2="127.897" y2="84.3836" gradientUnits="userSpaceOnUse">
<stop stop-color="#E3173C"></stop>
<stop offset="1" stop-color="#F495A6"></stop>
</linearGradient>
<linearGradient id="paint2_linear_300_1612" x1="127.897" y1="117.931" x2="127.897" y2="179.556" gradientUnits="userSpaceOnUse">
<stop stop-color="#E3173C"></stop>
<stop offset="1" stop-color="#F495A6"></stop>
</linearGradient>
</defs>
</svg>
