<svg width="49" height="48" viewBox="0 0 49 48" fill="none" xmlns="http://www.w3.org/2000/svg">
<rect x="2.5" y="2" width="44" height="44" rx="22" fill="#EF4444"/>
<rect x="2.5" y="2" width="44" height="44" rx="22" stroke="#FEE2E2" stroke-width="4"/>
<path d="M34.5 19L25.53 24.7C25.2213 24.8934 24.8643 24.996 24.5 24.996C24.1357 24.996 23.7787 24.8934 23.47 24.7L14.5 19M16.5 16H32.5C33.6046 16 34.5 16.8954 34.5 18V30C34.5 31.1046 33.6046 32 32.5 32H16.5C15.3954 32 14.5 31.1046 14.5 30V18C14.5 16.8954 15.3954 16 16.5 16Z" stroke="white" stroke-width="2" stroke-linecap="round" stroke-linejoin="round"/>
</svg>
