<svg width="14" height="14" viewBox="0 0 14 14" fill="none" xmlns="http://www.w3.org/2000/svg">
<path d="M11.609 1.34521C11.5152 1.10628 11.1783 1.10628 11.0844 1.34521L10.8333 1.98413C10.8047 2.05707 10.7471 2.11481 10.6745 2.14358L10.0379 2.39557C9.79986 2.4898 9.79986 2.82793 10.0379 2.92217L10.6745 3.17415C10.7471 3.20292 10.8047 3.26066 10.8333 3.33361L11.0844 3.97252C11.1783 4.21145 11.5152 4.21145 11.609 3.97252L11.8601 3.33361C11.8888 3.26066 11.9463 3.20292 12.019 3.17415L12.6555 2.92217C12.8936 2.82793 12.8936 2.4898 12.6555 2.39557L12.019 2.14358C11.9463 2.11481 11.8888 2.05707 11.8601 1.98413L11.609 1.34521Z" fill="#166534"/>
<path d="M9.35309 4.74166C9.25921 4.50273 8.92232 4.50273 8.82843 4.74166L8.7369 4.97461C8.70823 5.04755 8.65071 5.1053 8.57803 5.13407L8.34594 5.22594C8.10789 5.32017 8.10789 5.65831 8.34594 5.75254L8.57803 5.84441C8.65071 5.87318 8.70823 5.93092 8.7369 6.00387L8.82843 6.23682C8.92232 6.47575 9.25921 6.47575 9.35309 6.23682L9.44463 6.00387C9.47329 5.93092 9.53082 5.87318 9.6035 5.84441L9.83559 5.75254C10.0736 5.65831 10.0736 5.32017 9.83559 5.22594L9.6035 5.13407C9.53082 5.1053 9.47329 5.04755 9.44463 4.97461L9.35309 4.74166Z" fill="#166534"/>
<path d="M6.99935 12.8327C10.221 12.8327 12.8327 10.221 12.8327 6.99935C12.8327 6.72944 12.4282 6.68484 12.2886 6.91584C11.6246 8.01471 10.4186 8.74935 9.04102 8.74935C6.94694 8.74935 5.24935 7.05176 5.24935 4.95768C5.24935 3.58011 5.98398 2.37413 7.08286 1.71013C7.31386 1.57054 7.26925 1.16602 6.99935 1.16602C3.77769 1.16602 1.16602 3.77769 1.16602 6.99935C1.16602 10.221 3.77769 12.8327 6.99935 12.8327Z" fill="#166534"/>
</svg>
