<svg width="111" height="88" viewBox="0 0 111 88" fill="none" xmlns="http://www.w3.org/2000/svg">
<path d="M87.3008 44C87.3008 67.7482 68.049 87 44.3008 87C20.5525 87 1.30078 67.7482 1.30078 44C1.30078 20.2518 20.5525 1 44.3008 1C68.049 1 87.3008 20.2518 87.3008 44Z" fill="url(#paint0_linear_1720_3970)" stroke="url(#paint1_linear_1720_3970)"/>
<g filter="url(#filter0_d_1720_3970)">
<path d="M24.5797 20.22H102.88C103.649 20.22 104.386 20.5255 104.93 21.0694C105.474 21.6132 105.78 22.3508 105.78 23.12V37.62C105.78 38.3891 105.474 39.1267 104.93 39.6706C104.386 40.2144 103.649 40.52 102.88 40.52H24.5797C23.8106 40.52 23.0729 40.2144 22.5291 39.6706C21.9852 39.1267 21.6797 38.3891 21.6797 37.62V23.12C21.6797 22.3508 21.9852 21.6132 22.5291 21.0694C23.0729 20.5255 23.8106 20.22 24.5797 20.22V20.22Z" fill="white"/>
</g>
<path opacity="0.3" d="M61.6989 24.86H46.6189C45.6579 24.86 44.8789 25.639 44.8789 26.6C44.8789 27.561 45.6579 28.34 46.6189 28.34H61.6989C62.6599 28.34 63.4389 27.561 63.4389 26.6C63.4389 25.639 62.6599 24.86 61.6989 24.86Z" fill="#57534E"/>
<path opacity="0.15" d="M72.1389 32.4H46.6189C45.6579 32.4 44.8789 33.179 44.8789 34.14C44.8789 35.101 45.6579 35.88 46.6189 35.88H72.1389C73.0999 35.88 73.8789 35.101 73.8789 34.14C73.8789 33.179 73.0999 32.4 72.1389 32.4Z" fill="#57534E"/>
<path d="M40.2399 30.37C40.2399 25.7252 36.4746 21.96 31.8299 21.96C27.1852 21.96 23.4199 25.7252 23.4199 30.37C23.4199 35.0147 27.1852 38.78 31.8299 38.78C36.4746 38.78 40.2399 35.0147 40.2399 30.37Z" fill="#57534E"/>
<path d="M31.3078 33.0926C32.0278 33.0924 32.7271 32.8515 33.2943 32.4082L35.0778 34.1917L35.6514 33.618L33.8674 31.834C34.3156 31.2544 34.5543 30.5402 34.5447 29.8076C34.535 29.075 34.2775 28.3673 33.8141 27.7998C33.3507 27.2323 32.7088 26.8384 31.993 26.6825C31.2771 26.5265 30.5295 26.6176 29.8721 26.9409C29.2146 27.2642 28.686 27.8006 28.3725 28.4628C28.0589 29.1249 27.9789 29.8738 28.1454 30.5873C28.3119 31.3007 28.7152 31.9368 29.2895 32.3917C29.8637 32.8467 30.5752 33.0937 31.3078 33.0926V33.0926ZM31.3078 27.412C31.7896 27.412 32.2606 27.5549 32.6612 27.8226C33.0618 28.0902 33.374 28.4707 33.5584 28.9158C33.7428 29.3609 33.791 29.8507 33.697 30.3233C33.603 30.7958 33.371 31.2299 33.0303 31.5705C32.6896 31.9112 32.2556 32.1432 31.7831 32.2372C31.3105 32.3312 30.8207 32.283 30.3756 32.0986C29.9305 31.9142 29.55 31.602 29.2824 31.2014C29.0147 30.8008 28.8718 30.3298 28.8718 29.848C28.8718 29.202 29.1285 28.5824 29.5853 28.1255C30.0421 27.6687 30.6617 27.412 31.3078 27.412V27.412Z" fill="white"/>
<g filter="url(#filter1_d_1720_3970)">
<path d="M94.1805 46.3199H15.8805C14.2788 46.3199 12.9805 47.6183 12.9805 49.2199V63.7199C12.9805 65.3216 14.2788 66.6199 15.8805 66.6199H94.1805C95.7821 66.6199 97.0805 65.3216 97.0805 63.7199V49.2199C97.0805 47.6183 95.7821 46.3199 94.1805 46.3199Z" fill="white"/>
</g>
<path opacity="0.3" d="M52.9997 50.96H37.9197C36.9587 50.96 36.1797 51.739 36.1797 52.7C36.1797 53.6609 36.9587 54.44 37.9197 54.44H52.9997C53.9607 54.44 54.7397 53.6609 54.7397 52.7C54.7397 51.739 53.9607 50.96 52.9997 50.96Z" fill="#57534E"/>
<path opacity="0.15" d="M63.4397 58.5H37.9197C36.9587 58.5 36.1797 59.279 36.1797 60.24C36.1797 61.201 36.9587 61.98 37.9197 61.98H63.4397C64.4007 61.98 65.1797 61.201 65.1797 60.24C65.1797 59.279 64.4007 58.5 63.4397 58.5Z" fill="#57534E"/>
<path d="M31.5407 56.4699C31.5407 51.8252 27.7754 48.0599 23.1307 48.0599C18.486 48.0599 14.7207 51.8252 14.7207 56.4699C14.7207 61.1146 18.486 64.8799 23.1307 64.8799C27.7754 64.8799 31.5407 61.1146 31.5407 56.4699Z" fill="#57534E"/>
<path d="M22.6086 59.1925C23.3286 59.1924 24.0278 58.9515 24.5951 58.5081L26.3786 60.2916L26.9522 59.718L25.1681 57.9339C25.6164 57.3544 25.8551 56.6401 25.8454 55.9076C25.8358 55.175 25.5783 54.4673 25.1149 53.8998C24.6515 53.3323 24.0096 52.9384 23.2937 52.7825C22.5779 52.6265 21.8303 52.7176 21.1729 53.0409C20.5154 53.3642 19.9868 53.9006 19.6733 54.5628C19.3597 55.2249 19.2797 55.9738 19.4462 56.6872C19.6127 57.4007 20.016 58.0367 20.5902 58.4917C21.1645 58.9466 21.876 59.1937 22.6086 59.1925V59.1925ZM22.6086 53.512C23.0904 53.512 23.5614 53.6549 23.962 53.9225C24.3626 54.1902 24.6748 54.5707 24.8592 55.0158C25.0435 55.4609 25.0918 55.9507 24.9978 56.4232C24.9038 56.8958 24.6718 57.3298 24.3311 57.6705C23.9904 58.0112 23.5564 58.2432 23.0838 58.3372C22.6113 58.4312 22.1215 58.383 21.6764 58.1986C21.2313 58.0142 20.8508 57.702 20.5831 57.3014C20.3155 56.9008 20.1726 56.4298 20.1726 55.948C20.1726 55.3019 20.4292 54.6823 20.8861 54.2255C21.3429 53.7687 21.9625 53.512 22.6086 53.512V53.512Z" fill="white"/>
<defs>
<filter id="filter0_d_1720_3970" x="15.6797" y="17.22" width="96.0996" height="32.3" filterUnits="userSpaceOnUse" color-interpolation-filters="sRGB">
<feFlood flood-opacity="0" result="BackgroundImageFix"/>
<feColorMatrix in="SourceAlpha" type="matrix" values="0 0 0 0 0 0 0 0 0 0 0 0 0 0 0 0 0 0 127 0" result="hardAlpha"/>
<feOffset dy="3"/>
<feGaussianBlur stdDeviation="3"/>
<feColorMatrix type="matrix" values="0 0 0 0 0 0 0 0 0 0 0 0 0 0 0 0 0 0 0.161 0"/>
<feBlend mode="normal" in2="BackgroundImageFix" result="effect1_dropShadow_1720_3970"/>
<feBlend mode="normal" in="SourceGraphic" in2="effect1_dropShadow_1720_3970" result="shape"/>
</filter>
<filter id="filter1_d_1720_3970" x="6.98047" y="43.3199" width="96.0996" height="32.3" filterUnits="userSpaceOnUse" color-interpolation-filters="sRGB">
<feFlood flood-opacity="0" result="BackgroundImageFix"/>
<feColorMatrix in="SourceAlpha" type="matrix" values="0 0 0 0 0 0 0 0 0 0 0 0 0 0 0 0 0 0 127 0" result="hardAlpha"/>
<feOffset dy="3"/>
<feGaussianBlur stdDeviation="3"/>
<feColorMatrix type="matrix" values="0 0 0 0 0 0 0 0 0 0 0 0 0 0 0 0 0 0 0.161 0"/>
<feBlend mode="normal" in2="BackgroundImageFix" result="effect1_dropShadow_1720_3970"/>
<feBlend mode="normal" in="SourceGraphic" in2="effect1_dropShadow_1720_3970" result="shape"/>
</filter>
<linearGradient id="paint0_linear_1720_3970" x1="96.5008" y1="99.3071" x2="0.800781" y2="0.5" gradientUnits="userSpaceOnUse">
<stop stop-color="#A8A29E"/>
<stop offset="1" stop-color="white"/>
</linearGradient>
<linearGradient id="paint1_linear_1720_3970" x1="96.5008" y1="99.3071" x2="0.800781" y2="0.5" gradientUnits="userSpaceOnUse">
<stop stop-color="#A8A29E"/>
<stop offset="1" stop-color="white"/>
</linearGradient>
</defs>
</svg>
