<svg width="116" height="116" viewBox="0 0 116 116" fill="none" xmlns="http://www.w3.org/2000/svg">
<g clip-path="url(#clip0_536_9480)">
<path d="M93.9606 17.3999H24.3605C21.1573 17.3999 18.5605 19.9967 18.5605 23.1999V92.7999C18.5605 96.0032 21.1573 98.5999 24.3605 98.5999H93.9606C97.1638 98.5999 99.7606 96.0032 99.7606 92.7999V23.1999C99.7606 19.9967 97.1638 17.3999 93.9606 17.3999Z" fill="url(#paint0_linear_536_9480)"/>
<g filter="url(#filter0_d_536_9480)">
<path d="M31.3209 48.7197H109.621C110.39 48.7197 111.128 49.0253 111.672 49.5691C112.215 50.113 112.521 50.8506 112.521 51.6197V66.1197C112.521 66.8889 112.215 67.6265 111.672 68.1703C111.128 68.7142 110.39 69.0197 109.621 69.0197H31.3209C30.5518 69.0197 29.8141 68.7142 29.2703 68.1703C28.7264 67.6265 28.4209 66.8889 28.4209 66.1197V51.6197C28.4209 50.8506 28.7264 50.113 29.2703 49.5691C29.8141 49.0253 30.5518 48.7197 31.3209 48.7197V48.7197Z" fill="white"/>
</g>
<path opacity="0.3" d="M74.2409 53.3599H59.1609C58.1999 53.3599 57.4209 54.1389 57.4209 55.0999C57.4209 56.0608 58.1999 56.8399 59.1609 56.8399H74.2409C75.2019 56.8399 75.9809 56.0608 75.9809 55.0999C75.9809 54.1389 75.2019 53.3599 74.2409 53.3599Z" fill="#D6D3D1"/>
<path opacity="0.15" d="M84.6809 60.8999H59.1609C58.1999 60.8999 57.4209 61.6789 57.4209 62.6399C57.4209 63.6009 58.1999 64.3799 59.1609 64.3799H84.6809C85.6419 64.3799 86.4209 63.6009 86.4209 62.6399C86.4209 61.6789 85.6419 60.8999 84.6809 60.8999Z" fill="#D6D3D1"/>
<path d="M46.1106 64.3799C49.1537 64.3799 51.6206 61.9129 51.6206 58.8699C51.6206 55.8268 49.1537 53.3599 46.1106 53.3599C43.0675 53.3599 40.6006 55.8268 40.6006 58.8699C40.6006 61.9129 43.0675 64.3799 46.1106 64.3799Z" fill="#D6D3D1"/>
<g filter="url(#filter1_d_536_9480)">
<path d="M6.38047 73.6597H84.6805C85.4496 73.6597 86.1872 73.9652 86.7311 74.5091C87.2749 75.0529 87.5805 75.7905 87.5805 76.5597V91.0597C87.5805 91.8288 87.2749 92.5664 86.7311 93.1103C86.1872 93.6541 85.4496 93.9597 84.6805 93.9597H6.38047C5.61134 93.9597 4.87371 93.6541 4.32986 93.1103C3.786 92.5664 3.48047 91.8288 3.48047 91.0597V76.5597C3.48047 75.7905 3.786 75.0529 4.32986 74.5091C4.87371 73.9652 5.61134 73.6597 6.38047 73.6597V73.6597Z" fill="white"/>
</g>
<path opacity="0.3" d="M49.3005 78.2998H34.2205C33.2595 78.2998 32.4805 79.0788 32.4805 80.0398C32.4805 81.0008 33.2595 81.7798 34.2205 81.7798H49.3005C50.2614 81.7798 51.0405 81.0008 51.0405 80.0398C51.0405 79.0788 50.2614 78.2998 49.3005 78.2998Z" fill="#D6D3D1"/>
<path opacity="0.15" d="M59.7405 85.8398H34.2205C33.2595 85.8398 32.4805 86.6189 32.4805 87.5798C32.4805 88.5408 33.2595 89.3198 34.2205 89.3198H59.7405C60.7014 89.3198 61.4805 88.5408 61.4805 87.5798C61.4805 86.6189 60.7014 85.8398 59.7405 85.8398Z" fill="#D6D3D1"/>
<path d="M13.6301 89.3198C16.6732 89.3198 19.1401 86.8529 19.1401 83.8098C19.1401 80.7667 16.6732 78.2998 13.6301 78.2998C10.587 78.2998 8.12012 80.7667 8.12012 83.8098C8.12012 86.8529 10.587 89.3198 13.6301 89.3198Z" fill="#D6D3D1"/>
<g filter="url(#filter2_d_536_9480)">
<path d="M84.6805 23.7798H6.38047C4.77884 23.7798 3.48047 25.0782 3.48047 26.6798V41.1798C3.48047 42.7814 4.77884 44.0798 6.38047 44.0798H84.6805C86.2821 44.0798 87.5805 42.7814 87.5805 41.1798V26.6798C87.5805 25.0782 86.2821 23.7798 84.6805 23.7798Z" fill="white"/>
</g>
<path opacity="0.3" d="M48.1403 28.4199H33.0603C32.0993 28.4199 31.3203 29.1989 31.3203 30.1599C31.3203 31.1209 32.0993 31.8999 33.0603 31.8999H48.1403C49.1013 31.8999 49.8803 31.1209 49.8803 30.1599C49.8803 29.1989 49.1013 28.4199 48.1403 28.4199Z" fill="#D6D3D1"/>
<path opacity="0.15" d="M58.5803 35.96H33.0603C32.0993 35.96 31.3203 36.739 31.3203 37.7C31.3203 38.6609 32.0993 39.44 33.0603 39.44H58.5803C59.5413 39.44 60.3203 38.6609 60.3203 37.7C60.3203 36.739 59.5413 35.96 58.5803 35.96Z" fill="#D6D3D1"/>
<path d="M21.1702 39.4399C24.2132 39.4399 26.6802 36.973 26.6802 33.9299C26.6802 30.8868 24.2132 28.4199 21.1702 28.4199C18.1271 28.4199 15.6602 30.8868 15.6602 33.9299C15.6602 36.973 18.1271 39.4399 21.1702 39.4399Z" fill="#D6D3D1"/>
</g>
<defs>
<filter id="filter0_d_536_9480" x="22.4209" y="45.7197" width="96.0996" height="32.2998" filterUnits="userSpaceOnUse" color-interpolation-filters="sRGB">
<feFlood flood-opacity="0" result="BackgroundImageFix"/>
<feColorMatrix in="SourceAlpha" type="matrix" values="0 0 0 0 0 0 0 0 0 0 0 0 0 0 0 0 0 0 127 0" result="hardAlpha"/>
<feOffset dy="3"/>
<feGaussianBlur stdDeviation="3"/>
<feColorMatrix type="matrix" values="0 0 0 0 0 0 0 0 0 0 0 0 0 0 0 0 0 0 0.161 0"/>
<feBlend mode="normal" in2="BackgroundImageFix" result="effect1_dropShadow_536_9480"/>
<feBlend mode="normal" in="SourceGraphic" in2="effect1_dropShadow_536_9480" result="shape"/>
</filter>
<filter id="filter1_d_536_9480" x="-2.51953" y="70.6597" width="96.0996" height="32.2998" filterUnits="userSpaceOnUse" color-interpolation-filters="sRGB">
<feFlood flood-opacity="0" result="BackgroundImageFix"/>
<feColorMatrix in="SourceAlpha" type="matrix" values="0 0 0 0 0 0 0 0 0 0 0 0 0 0 0 0 0 0 127 0" result="hardAlpha"/>
<feOffset dy="3"/>
<feGaussianBlur stdDeviation="3"/>
<feColorMatrix type="matrix" values="0 0 0 0 0 0 0 0 0 0 0 0 0 0 0 0 0 0 0.161 0"/>
<feBlend mode="normal" in2="BackgroundImageFix" result="effect1_dropShadow_536_9480"/>
<feBlend mode="normal" in="SourceGraphic" in2="effect1_dropShadow_536_9480" result="shape"/>
</filter>
<filter id="filter2_d_536_9480" x="-2.51953" y="20.7798" width="96.0996" height="32.2998" filterUnits="userSpaceOnUse" color-interpolation-filters="sRGB">
<feFlood flood-opacity="0" result="BackgroundImageFix"/>
<feColorMatrix in="SourceAlpha" type="matrix" values="0 0 0 0 0 0 0 0 0 0 0 0 0 0 0 0 0 0 127 0" result="hardAlpha"/>
<feOffset dy="3"/>
<feGaussianBlur stdDeviation="3"/>
<feColorMatrix type="matrix" values="0 0 0 0 0 0 0 0 0 0 0 0 0 0 0 0 0 0 0.161 0"/>
<feBlend mode="normal" in2="BackgroundImageFix" result="effect1_dropShadow_536_9480"/>
<feBlend mode="normal" in="SourceGraphic" in2="effect1_dropShadow_536_9480" result="shape"/>
</filter>
<linearGradient id="paint0_linear_536_9480" x1="107.881" y1="109.62" x2="18.5606" y2="17.3999" gradientUnits="userSpaceOnUse">
<stop stop-color="#A8A29E"/>
<stop offset="1" stop-color="white"/>
</linearGradient>
<clipPath id="clip0_536_9480">
<rect width="116" height="116" fill="white"/>
</clipPath>
</defs>
</svg>
