<svg width="74" height="80" viewBox="0 0 74 80" fill="none" xmlns="http://www.w3.org/2000/svg">
<path d="M5.26314 0.5H68.4208C71.0514 0.5 73.184 2.63253 73.184 5.26314V68.4208C73.184 71.0514 71.0514 73.1839 68.4208 73.1839H5.26314C2.63253 73.1839 0.5 71.0514 0.5 68.4208V5.26314C0.5 2.63253 2.63253 0.5 5.26314 0.5Z" fill="url(#paint0_linear_3499_49004)" stroke="url(#paint1_linear_3499_49004)"/>
<g filter="url(#filter0_d_3499_49004)">
<path d="M59.4746 11.5791H14.2116C12.7583 11.5791 11.5801 12.911 11.5801 14.5539V77.0251C11.5801 78.668 12.7583 79.9999 14.2116 79.9999H59.4746C60.928 79.9999 62.1062 78.668 62.1062 77.0251V14.5539C62.1062 12.911 60.928 11.5791 59.4746 11.5791Z" fill="white"/>
<path opacity="0.3" d="M36.8432 44.7373H23.159C22.287 44.7373 21.5801 45.4442 21.5801 46.3162C21.5801 47.1883 22.287 47.8952 23.159 47.8952H36.8432C37.7152 47.8952 38.4221 47.1883 38.4221 46.3162C38.4221 45.4442 37.7152 44.7373 36.8432 44.7373Z" fill="#57534E"/>
<path opacity="0.15" d="M46.3168 51.5801H23.159C22.287 51.5801 21.5801 52.287 21.5801 53.159C21.5801 54.031 22.287 54.738 23.159 54.738H46.3168C47.1889 54.738 47.8958 54.031 47.8958 53.159C47.8958 52.287 47.1889 51.5801 46.3168 51.5801Z" fill="#57534E"/>
<path opacity="0.3" d="M36.8432 58.9473H23.159C22.287 58.9473 21.5801 59.6542 21.5801 60.5262C21.5801 61.3982 22.287 62.1051 23.159 62.1051H36.8432C37.7152 62.1051 38.4221 61.3982 38.4221 60.5262C38.4221 59.6542 37.7152 58.9473 36.8432 58.9473Z" fill="#57534E"/>
<path opacity="0.15" d="M46.3168 65.79H23.159C22.287 65.79 21.5801 66.497 21.5801 67.369C21.5801 68.241 22.287 68.9479 23.159 68.9479H46.3168C47.1889 68.9479 47.8958 68.241 47.8958 67.369C47.8958 66.497 47.1889 65.79 46.3168 65.79Z" fill="#57534E"/>
</g>
<path d="M42.1042 18.4209H32.1042C30.6509 18.4209 29.4727 19.5991 29.4727 21.0525V31.0524C29.4727 32.5058 30.6509 33.684 32.1042 33.684H42.1042C43.5576 33.684 44.7358 32.5058 44.7358 31.0524V21.0525C44.7358 19.5991 43.5576 18.4209 42.1042 18.4209Z" fill="#57534E"/>
<path d="M35.9058 27.7789H36.9584L36.97 27.3736C36.97 26.841 37.3058 26.7021 37.7805 26.5515C38.2567 26.4161 38.6759 26.1292 38.9746 25.7344C39.2733 25.3396 39.4354 24.8582 39.4363 24.3631C39.4467 24.0608 39.3943 23.7597 39.2823 23.4787C39.1703 23.1977 39.0012 22.9431 38.7857 22.7308C38.5702 22.5186 38.313 22.3534 38.0303 22.2457C37.7477 22.138 37.4457 22.0902 37.1436 22.1052C36.8244 22.0983 36.5071 22.1562 36.2109 22.2756C35.9147 22.395 35.6458 22.5733 35.4206 22.7997C35.1954 23.026 35.0185 23.2958 34.9007 23.5926C34.7829 23.8894 34.7266 24.2071 34.7352 24.5263H35.8237C35.8195 24.35 35.8506 24.1747 35.9151 24.0106C35.9796 23.8466 36.0762 23.697 36.1992 23.5707C36.3223 23.4445 36.4693 23.344 36.6316 23.2753C36.794 23.2066 36.9684 23.1709 37.1447 23.1705C37.3037 23.1613 37.4628 23.1864 37.6112 23.2441C37.7596 23.3019 37.8939 23.3909 38.0048 23.5052C38.1158 23.6194 38.2008 23.7562 38.2542 23.9062C38.3076 24.0563 38.328 24.2161 38.3142 24.3747C38.3072 24.6315 38.2179 24.8792 38.0594 25.0814C37.901 25.2836 37.6818 25.4296 37.4342 25.4979L37.0521 25.6494C36.678 25.7396 36.3514 25.9669 36.1369 26.2864C35.9225 26.6059 35.8359 26.9943 35.8942 27.3747L35.9058 27.7789ZM36.4268 30.281C36.5299 30.2847 36.6326 30.2676 36.729 30.2309C36.8254 30.1941 36.9134 30.1385 36.9879 30.0671C37.0624 29.9958 37.1218 29.9102 37.1627 29.8155C37.2035 29.7208 37.225 29.6189 37.2258 29.5157C37.2248 29.4127 37.2033 29.3109 37.1624 29.2163C37.1215 29.1217 37.062 29.0363 36.9875 28.9651C36.9131 28.8938 36.8251 28.8382 36.7288 28.8016C36.6325 28.7649 36.5298 28.7479 36.4268 28.7515C36.3238 28.7479 36.2211 28.7649 36.1248 28.8016C36.0285 28.8382 35.9405 28.8938 35.8661 28.9651C35.7916 29.0363 35.7322 29.1217 35.6912 29.2163C35.6503 29.3109 35.6288 29.4127 35.6279 29.5157C35.6286 29.6189 35.6501 29.7208 35.6909 29.8155C35.7318 29.9102 35.7912 29.9958 35.8657 30.0671C35.9402 30.1385 36.0282 30.1941 36.1246 30.2309C36.221 30.2676 36.3237 30.2847 36.4268 30.281Z" fill="white"/>
<defs>
<filter id="filter0_d_3499_49004" x="5.58008" y="2.5791" width="62.5254" height="80.4209" filterUnits="userSpaceOnUse" color-interpolation-filters="sRGB">
<feFlood flood-opacity="0" result="BackgroundImageFix"/>
<feColorMatrix in="SourceAlpha" type="matrix" values="0 0 0 0 0 0 0 0 0 0 0 0 0 0 0 0 0 0 127 0" result="hardAlpha"/>
<feOffset dy="-3"/>
<feGaussianBlur stdDeviation="3"/>
<feColorMatrix type="matrix" values="0 0 0 0 0.788235 0 0 0 0 0.803922 0 0 0 0 0.85098 0 0 0 0.349 0"/>
<feBlend mode="normal" in2="BackgroundImageFix" result="effect1_dropShadow_3499_49004"/>
<feBlend mode="normal" in="SourceGraphic" in2="effect1_dropShadow_3499_49004" result="shape"/>
</filter>
<linearGradient id="paint0_linear_3499_49004" x1="81.0523" y1="83.6839" x2="8.66039e-06" y2="-8.38805e-06" gradientUnits="userSpaceOnUse">
<stop stop-color="#A8A29E"/>
<stop offset="1" stop-color="white"/>
</linearGradient>
<linearGradient id="paint1_linear_3499_49004" x1="81.0523" y1="83.6839" x2="8.66039e-06" y2="-8.38805e-06" gradientUnits="userSpaceOnUse">
<stop stop-color="#A8A29E"/>
<stop offset="1" stop-color="white"/>
</linearGradient>
</defs>
</svg>
