<svg width="14" height="14" viewBox="0 0 14 14" fill="none" xmlns="http://www.w3.org/2000/svg">
<path d="M6.99943 11.6665H12.2494M8.74943 2.91652L10.4994 4.66652M9.55208 2.11268C9.7843 1.88046 10.0993 1.75 10.4277 1.75C10.7561 1.75 11.071 1.88046 11.3033 2.11268C11.5355 2.3449 11.6659 2.65985 11.6659 2.98826C11.6659 3.31667 11.5355 3.63163 11.3033 3.86385L4.29742 10.8703C4.15864 11.009 3.9871 11.1106 3.79867 11.1654L2.12333 11.6543C2.07314 11.6689 2.01993 11.6698 1.96928 11.6568C1.91863 11.6438 1.8724 11.6175 1.83543 11.5805C1.79846 11.5435 1.7721 11.4973 1.75913 11.4466C1.74615 11.396 1.74703 11.3428 1.76167 11.2926L2.2505 9.61726C2.30546 9.42904 2.40698 9.25771 2.54567 9.1191L9.55208 2.11268Z" stroke="#15803D" stroke-width="1.2" stroke-linecap="round" stroke-linejoin="round"/>
</svg>
