<svg width="16" height="16" viewBox="0 0 16 16" fill="none" xmlns="http://www.w3.org/2000/svg">
<g clip-path="url(#clip0_1225_32083)">
<path d="M8.99967 14.6673H4.66634C4.48953 14.6673 4.31996 14.5971 4.19494 14.4721C4.06991 14.347 3.99967 14.1775 3.99967 14.0007V10.0007C3.99967 9.82384 4.06991 9.65427 4.19494 9.52925C4.31996 9.40422 4.48953 9.33398 4.66634 9.33398H11.333C11.5098 9.33398 11.6794 9.40422 11.8044 9.52925C11.9294 9.65427 11.9997 9.82384 11.9997 10.0007V10.334M10.6663 12.6673L11.9997 14.0007L14.6663 11.334M3.99967 12.0007H2.66634C2.31272 12.0007 1.97358 11.8602 1.72353 11.6101C1.47348 11.3601 1.33301 11.0209 1.33301 10.6673V7.33398C1.33301 6.98036 1.47348 6.64122 1.72353 6.39118C1.97358 6.14113 2.31272 6.00065 2.66634 6.00065H13.333C13.6866 6.00065 14.0258 6.14113 14.2758 6.39118C14.5259 6.64122 14.6663 6.98036 14.6663 7.33398V8.66732M3.99967 6.00065V2.00065C3.99967 1.82384 4.06991 1.65427 4.19494 1.52925C4.31996 1.40422 4.48953 1.33398 4.66634 1.33398H11.333C11.5098 1.33398 11.6794 1.40422 11.8044 1.52925C11.9294 1.65427 11.9997 1.82384 11.9997 2.00065V6.00065" stroke="#292524" stroke-width="1.5" stroke-linecap="round" stroke-linejoin="round"/>
</g>
<defs>
<clipPath id="clip0_1225_32083">
<rect width="16" height="16" fill="white"/>
</clipPath>
</defs>
</svg>
