<svg width="14" height="14" viewBox="0 0 14 14" fill="none" stroke="currentColor" xmlns="http://www.w3.org/2000/svg">
<g clip-path="url(#clip0_800_16321)">
<path d="M8.74935 2.9163L11.0827 5.24963M12.3508 3.97324C12.6592 3.6649 12.8325 3.24668 12.8326 2.81057C12.8326 2.37446 12.6594 1.95619 12.3511 1.64778C12.0428 1.33937 11.6245 1.16607 11.1884 1.16602C10.7523 1.16596 10.3341 1.33915 10.0256 1.64749L2.24048 9.4344C2.10504 9.56945 2.00488 9.73571 1.94881 9.91857L1.17823 12.4572C1.16315 12.5077 1.16201 12.5613 1.17493 12.6123C1.18785 12.6634 1.21435 12.71 1.25161 12.7472C1.28887 12.7844 1.33551 12.8108 1.38657 12.8236C1.43763 12.8365 1.49122 12.8352 1.54164 12.8201L4.08089 12.0501C4.26358 11.9945 4.42983 11.895 4.56506 11.7602L12.3508 3.97324Z" stroke="#44403C" stroke-width="1.2" stroke-linecap="round" stroke-linejoin="round"/>
</g>
<defs>
<clipPath id="clip0_800_16321">
<rect width="14" height="14" fill="white"/>
</clipPath>
</defs>
</svg>
