<svg width="22" height="22" viewBox="0 0 22 22" fill="none" xmlns="http://www.w3.org/2000/svg">
<rect width="22" height="22" rx="4" fill="#EEEDEC"/>
<path d="M5.20248 11.2039C5.15386 11.073 5.15386 10.9289 5.20248 10.7979C5.67597 9.64986 6.47969 8.66822 7.51176 7.97747C8.54383 7.28672 9.75775 6.91797 10.9996 6.91797C12.2415 6.91797 13.4555 7.28672 14.4875 7.97747C15.5196 8.66822 16.3233 9.64986 16.7968 10.7979C16.8454 10.9289 16.8454 11.073 16.7968 11.2039C16.3233 12.352 15.5196 13.3337 14.4875 14.0244C13.4555 14.7152 12.2415 15.0839 10.9996 15.0839C9.75775 15.0839 8.54383 14.7152 7.51176 14.0244C6.47969 13.3337 5.67597 12.352 5.20248 11.2039Z" stroke="#44403C" stroke-width="1.2" stroke-linecap="round" stroke-linejoin="round"/>
<path d="M10.9996 12.7509C11.9661 12.7509 12.7496 11.9674 12.7496 11.0009C12.7496 10.0344 11.9661 9.25087 10.9996 9.25087C10.0331 9.25087 9.24963 10.0344 9.24963 11.0009C9.24963 11.9674 10.0331 12.7509 10.9996 12.7509Z" stroke="#44403C" stroke-width="1.2" stroke-linecap="round" stroke-linejoin="round"/>
</svg>
