<svg width="15" height="16" viewBox="0 0 15 16" fill="none" xmlns="http://www.w3.org/2000/svg">
<path d="M2.66732 14.6663H12.0007C12.3543 14.6663 12.6934 14.5259 12.9435 14.2758C13.1935 14.0258 13.334 13.6866 13.334 13.333V4.66634L10.0007 1.33301H4.00065C3.64703 1.33301 3.30789 1.47348 3.05784 1.72353C2.80779 1.97358 2.66732 2.31272 2.66732 2.66634V5.33301M9.33398 1.33301V3.99967C9.33398 4.3533 9.47446 4.69244 9.72451 4.94248C9.97456 5.19253 10.3137 5.33301 10.6673 5.33301H13.334M1.33398 9.99967H8.00065M8.00065 9.99967L6.00065 11.9997M8.00065 9.99967L6.00065 7.99967" stroke="white" stroke-width="1.5" stroke-linecap="round" stroke-linejoin="round"/>
</svg>
