<svg width="24" height="24" viewBox="0 0 24 24" fill="none" xmlns="http://www.w3.org/2000/svg">
<rect x="0.5" y="0.5" width="23" height="23" rx="4.5" fill="#FDECF0"/>
<rect x="0.5" y="0.5" width="23" height="23" rx="4.5" stroke="#ED4E6B"/>
<path d="M6.20248 12.2039C6.15386 12.073 6.15386 11.9289 6.20248 11.7979C6.67597 10.6499 7.47969 9.66822 8.51176 8.97747C9.54383 8.28672 10.7578 7.91797 11.9996 7.91797C13.2415 7.91797 14.4555 8.28672 15.4875 8.97747C16.5196 9.66822 17.3233 10.6499 17.7968 11.7979C17.8454 11.9289 17.8454 12.073 17.7968 12.2039C17.3233 13.352 16.5196 14.3337 15.4875 15.0244C14.4555 15.7152 13.2415 16.0839 11.9996 16.0839C10.7578 16.0839 9.54383 15.7152 8.51176 15.0244C7.47969 14.3337 6.67597 13.352 6.20248 12.2039Z" stroke="#ED4E6B" stroke-width="1.2" stroke-linecap="round" stroke-linejoin="round"/>
<path d="M11.9996 13.7509C12.9661 13.7509 13.7496 12.9674 13.7496 12.0009C13.7496 11.0344 12.9661 10.2509 11.9996 10.2509C11.0331 10.2509 10.2496 11.0344 10.2496 12.0009C10.2496 12.9674 11.0331 13.7509 11.9996 13.7509Z" stroke="#ED4E6B" stroke-width="1.2" stroke-linecap="round" stroke-linejoin="round"/>
</svg>
