<svg width="16" height="16" viewBox="0 0 16 16" fill="none" xmlns="http://www.w3.org/2000/svg">
<path d="M16 4.76466C16 4.09375 15.4556 3.54981 14.7847 3.54981C14.1133 3.54981 13.5688 4.09375 13.5688 4.76466C13.5688 5.09278 13.6992 5.39016 13.9107 5.60841C13.084 7.32031 11.5039 7.91797 10.2793 7.37697C9.1885 6.89453 8.78616 5.51562 8.64991 4.44728C9.09472 4.21341 9.39797 3.74756 9.39797 3.20997C9.39794 2.438 8.77247 1.8125 8 1.8125C7.22803 1.8125 6.60206 2.438 6.60206 3.20997C6.60206 3.74756 6.90528 4.21338 7.35012 4.44728C7.21391 5.51566 6.81156 6.89456 5.72072 7.37697C4.49609 7.918 2.91603 7.32031 2.08938 5.60841C2.30081 5.39016 2.43119 5.09278 2.43119 4.76466C2.43119 4.09375 1.88675 3.54981 1.21584 3.54981C0.544438 3.54981 0 4.09375 0 4.76466C0 5.38281 0.461906 5.89209 1.05859 5.96925L2.45947 11.0967H13.5405L14.9414 5.96925C15.5386 5.89209 16 5.38281 16 4.76466Z" fill="#F59E0B"/>
<path d="M14.2192 13.2847C14.2192 13.7842 13.8145 14.189 13.3145 14.189H2.68556C2.18603 14.1889 1.78125 13.7842 1.78125 13.2847V13.2095C1.78125 12.7095 2.18603 12.3047 2.68556 12.3047H13.3145C13.8145 12.3047 14.2192 12.7095 14.2192 13.2095V13.2847Z" fill="#F59E0B"/>
</svg>
