<svg width="14" height="14" viewBox="0 0 14 14" fill="none" xmlns="http://www.w3.org/2000/svg">
<g id="eye">
<g id="Vector">
<path d="M1.20248 7.20297C1.15386 7.072 1.15386 6.92793 1.20248 6.79697C1.67597 5.64888 2.47969 4.66724 3.51176 3.97649C4.54383 3.28574 5.75775 2.91699 6.99964 2.91699C8.24153 2.91699 9.45546 3.28574 10.4875 3.97649C11.5196 4.66724 12.3233 5.64888 12.7968 6.79697C12.8454 6.92793 12.8454 7.072 12.7968 7.20297C12.3233 8.35105 11.5196 9.33269 10.4875 10.0234C9.45546 10.7142 8.24153 11.0829 6.99964 11.0829C5.75775 11.0829 4.54383 10.7142 3.51176 10.0234C2.47969 9.33269 1.67597 8.35105 1.20248 7.20297Z" stroke="#292524" stroke-width="1.2" stroke-linecap="round" stroke-linejoin="round"/>
<path d="M6.99963 8.7499C7.96613 8.7499 8.74963 7.9664 8.74963 6.9999C8.74963 6.0334 7.96613 5.2499 6.99963 5.2499C6.03314 5.2499 5.24963 6.0334 5.24963 6.9999C5.24963 7.9664 6.03314 8.7499 6.99963 8.7499Z" stroke="#292524" stroke-width="1.2" stroke-linecap="round" stroke-linejoin="round"/>
</g>
</g>
</svg>
