<svg width="16" height="14" viewBox="0 0 16 14" fill="none" xmlns="http://www.w3.org/2000/svg">
<path d="M6.66732 9H4.00065C3.29341 9 2.61513 9.28095 2.11503 9.78105C1.61494 10.2811 1.33398 10.9594 1.33398 11.6667V13M14.4672 9.9334L13.8672 9.7334M10.1339 8.26673L9.53385 8.06673M11.0674 11.4667L11.2674 10.8667M12.734 7.13337L12.934 6.53337M13.0674 11.4666L12.8008 10.8M11.2006 7.20003L10.9339 6.53337M9.53385 10.0666L10.2005 9.79997M13.8008 8.19994L14.4674 7.93327M14.0007 9C14.0007 10.1046 13.1052 11 12.0007 11C10.8961 11 10.0007 10.1046 10.0007 9C10.0007 7.89543 10.8961 7 12.0007 7C13.1052 7 14.0007 7.89543 14.0007 9ZM8.66732 3.66667C8.66732 5.13943 7.47341 6.33333 6.00065 6.33333C4.52789 6.33333 3.33398 5.13943 3.33398 3.66667C3.33398 2.19391 4.52789 1 6.00065 1C7.47341 1 8.66732 2.19391 8.66732 3.66667Z" stroke="#292524" stroke-width="1.5" stroke-linecap="round" stroke-linejoin="round"/>
</svg>
