<svg width="116" height="116" viewBox="0 0 116 116" fill="none" xmlns="http://www.w3.org/2000/svg">
<g clip-path="url(#clip0_1175_18982)">
<path d="M92.3008 58C92.3008 81.7482 73.049 101 49.3008 101C25.5525 101 6.30078 81.7482 6.30078 58C6.30078 34.2518 25.5525 15 49.3008 15C73.049 15 92.3008 34.2518 92.3008 58Z" fill="url(#paint0_linear_1175_18982)" stroke="url(#paint1_linear_1175_18982)"/>
<g filter="url(#filter0_d_1175_18982)">
<path d="M29.5797 34.2202H107.88C108.649 34.2202 109.386 34.5257 109.93 35.0696C110.474 35.6135 110.78 36.3511 110.78 37.1202V51.6202C110.78 52.3893 110.474 53.127 109.93 53.6708C109.386 54.2147 108.649 54.5202 107.88 54.5202H29.5797C28.8106 54.5202 28.0729 54.2147 27.5291 53.6708C26.9852 53.127 26.6797 52.3893 26.6797 51.6202V37.1202C26.6797 36.3511 26.9852 35.6135 27.5291 35.0696C28.0729 34.5257 28.8106 34.2202 29.5797 34.2202V34.2202Z" fill="white"/>
</g>
<path opacity="0.3" d="M66.6989 38.8604H51.6189C50.6579 38.8604 49.8789 39.6394 49.8789 40.6004C49.8789 41.5613 50.6579 42.3404 51.6189 42.3404H66.6989C67.6599 42.3404 68.4389 41.5613 68.4389 40.6004C68.4389 39.6394 67.6599 38.8604 66.6989 38.8604Z" fill="#57534E"/>
<path opacity="0.15" d="M77.1389 46.4004H51.6189C50.6579 46.4004 49.8789 47.1794 49.8789 48.1404C49.8789 49.1014 50.6579 49.8804 51.6189 49.8804H77.1389C78.0999 49.8804 78.8789 49.1014 78.8789 48.1404C78.8789 47.1794 78.0999 46.4004 77.1389 46.4004Z" fill="#57534E"/>
<path d="M45.2399 44.3704C45.2399 39.7257 41.4746 35.9604 36.8299 35.9604C32.1852 35.9604 28.4199 39.7257 28.4199 44.3704C28.4199 49.0152 32.1852 52.7804 36.8299 52.7804C41.4746 52.7804 45.2399 49.0152 45.2399 44.3704Z" fill="#57534E"/>
<path d="M36.3078 47.0933C37.0278 47.0932 37.7271 46.8523 38.2943 46.4089L40.0778 48.1924L40.6514 47.6188L38.8674 45.8347C39.3156 45.2552 39.5543 44.5409 39.5447 43.8083C39.535 43.0757 39.2775 42.368 38.8141 41.8005C38.3507 41.233 37.7088 40.8392 36.993 40.6832C36.2771 40.5272 35.5295 40.6183 34.8721 40.9416C34.2146 41.2649 33.686 41.8013 33.3725 42.4635C33.0589 43.1257 32.9789 43.8745 33.1454 44.588C33.3119 45.3015 33.7152 45.9375 34.2895 46.3924C34.8637 46.8474 35.5752 47.0944 36.3078 47.0933ZM36.3078 41.4128C36.7896 41.4128 37.2606 41.5556 37.6612 41.8233C38.0618 42.091 38.374 42.4714 38.5584 42.9165C38.7428 43.3617 38.791 43.8515 38.697 44.324C38.603 44.7965 38.371 45.2306 38.0303 45.5713C37.6896 45.912 37.2556 46.144 36.7831 46.238C36.3105 46.332 35.8207 46.2837 35.3756 46.0993C34.9305 45.915 34.55 45.6027 34.2824 45.2021C34.0147 44.8015 33.8718 44.3306 33.8718 43.8488C33.8718 43.2027 34.1285 42.5831 34.5853 42.1263C35.0421 41.6694 35.6617 41.4128 36.3078 41.4128Z" fill="white"/>
<g filter="url(#filter1_d_1175_18982)">
<path d="M99.1805 60.3203H20.8805C19.2788 60.3203 17.9805 61.6187 17.9805 63.2203V77.7203C17.9805 79.3219 19.2788 80.6203 20.8805 80.6203H99.1805C100.782 80.6203 102.08 79.3219 102.08 77.7203V63.2203C102.08 61.6187 100.782 60.3203 99.1805 60.3203Z" fill="white"/>
</g>
<path opacity="0.3" d="M57.9997 64.9604H42.9197C41.9587 64.9604 41.1797 65.7395 41.1797 66.7005C41.1797 67.6614 41.9587 68.4405 42.9197 68.4405H57.9997C58.9607 68.4405 59.7397 67.6614 59.7397 66.7005C59.7397 65.7395 58.9607 64.9604 57.9997 64.9604Z" fill="#57534E"/>
<path opacity="0.15" d="M68.4397 72.5005H42.9197C41.9587 72.5005 41.1797 73.2795 41.1797 74.2405C41.1797 75.2015 41.9587 75.9805 42.9197 75.9805H68.4397C69.4007 75.9805 70.1797 75.2015 70.1797 74.2405C70.1797 73.2795 69.4007 72.5005 68.4397 72.5005Z" fill="#57534E"/>
<path d="M36.5407 70.4705C36.5407 65.8258 32.7754 62.0605 28.1307 62.0605C23.486 62.0605 19.7207 65.8258 19.7207 70.4705C19.7207 75.1153 23.486 78.8805 28.1307 78.8805C32.7754 78.8805 36.5407 75.1153 36.5407 70.4705Z" fill="#57534E"/>
<path d="M27.6086 73.1934C28.3286 73.1933 29.0278 72.9524 29.5951 72.509L31.3786 74.2925L31.9522 73.7189L30.1681 71.9348C30.6164 71.3553 30.8551 70.641 30.8454 69.9084C30.8358 69.1758 30.5783 68.4681 30.1149 67.9006C29.6515 67.3331 29.0096 66.9393 28.2937 66.7833C27.5779 66.6273 26.8303 66.7184 26.1729 67.0417C25.5154 67.365 24.9868 67.9014 24.6733 68.5636C24.3597 69.2258 24.2797 69.9746 24.4462 70.6881C24.6127 71.4016 25.016 72.0376 25.5902 72.4925C26.1645 72.9475 26.876 73.1945 27.6086 73.1934ZM27.6086 67.5129C28.0904 67.5129 28.5614 67.6557 28.962 67.9234C29.3626 68.1911 29.6748 68.5715 29.8592 69.0166C30.0435 69.4618 30.0918 69.9516 29.9978 70.4241C29.9038 70.8966 29.6718 71.3307 29.3311 71.6714C28.9904 72.0121 28.5564 72.2441 28.0838 72.3381C27.6113 72.432 27.1215 72.3838 26.6764 72.1994C26.2313 72.0151 25.8508 71.7028 25.5831 71.3022C25.3155 70.9016 25.1726 70.4307 25.1726 69.9489C25.1726 69.3028 25.4292 68.6832 25.8861 68.2264C26.3429 67.7695 26.9625 67.5129 27.6086 67.5129Z" fill="white"/>
</g>
<defs>
<filter id="filter0_d_1175_18982" x="20.6797" y="31.2202" width="96.0996" height="32.2998" filterUnits="userSpaceOnUse" color-interpolation-filters="sRGB">
<feFlood flood-opacity="0" result="BackgroundImageFix"/>
<feColorMatrix in="SourceAlpha" type="matrix" values="0 0 0 0 0 0 0 0 0 0 0 0 0 0 0 0 0 0 127 0" result="hardAlpha"/>
<feOffset dy="3"/>
<feGaussianBlur stdDeviation="3"/>
<feColorMatrix type="matrix" values="0 0 0 0 0 0 0 0 0 0 0 0 0 0 0 0 0 0 0.161 0"/>
<feBlend mode="normal" in2="BackgroundImageFix" result="effect1_dropShadow_1175_18982"/>
<feBlend mode="normal" in="SourceGraphic" in2="effect1_dropShadow_1175_18982" result="shape"/>
</filter>
<filter id="filter1_d_1175_18982" x="11.9805" y="57.3203" width="96.0996" height="32.2998" filterUnits="userSpaceOnUse" color-interpolation-filters="sRGB">
<feFlood flood-opacity="0" result="BackgroundImageFix"/>
<feColorMatrix in="SourceAlpha" type="matrix" values="0 0 0 0 0 0 0 0 0 0 0 0 0 0 0 0 0 0 127 0" result="hardAlpha"/>
<feOffset dy="3"/>
<feGaussianBlur stdDeviation="3"/>
<feColorMatrix type="matrix" values="0 0 0 0 0 0 0 0 0 0 0 0 0 0 0 0 0 0 0.161 0"/>
<feBlend mode="normal" in2="BackgroundImageFix" result="effect1_dropShadow_1175_18982"/>
<feBlend mode="normal" in="SourceGraphic" in2="effect1_dropShadow_1175_18982" result="shape"/>
</filter>
<linearGradient id="paint0_linear_1175_18982" x1="101.501" y1="113.307" x2="5.80078" y2="14.5" gradientUnits="userSpaceOnUse">
<stop stop-color="#A8A29E"/>
<stop offset="1" stop-color="white"/>
</linearGradient>
<linearGradient id="paint1_linear_1175_18982" x1="101.501" y1="113.307" x2="5.80078" y2="14.5" gradientUnits="userSpaceOnUse">
<stop stop-color="#A8A29E"/>
<stop offset="1" stop-color="white"/>
</linearGradient>
<clipPath id="clip0_1175_18982">
<rect width="116" height="116" fill="white"/>
</clipPath>
</defs>
</svg>
