<svg width="16" height="16" viewBox="0 0 16 16" fill="none" xmlns="http://www.w3.org/2000/svg">
<path d="M1.37468 8.23206C1.31912 8.08238 1.31912 7.91773 1.37468 7.76806C1.91581 6.45596 2.83435 5.33408 4.01386 4.54466C5.19336 3.75523 6.58071 3.3338 8.00001 3.3338C9.41932 3.3338 10.8067 3.75523 11.9862 4.54466C13.1657 5.33408 14.0842 6.45596 14.6253 7.76806C14.6809 7.91773 14.6809 8.08238 14.6253 8.23206C14.0842 9.54415 13.1657 10.666 11.9862 11.4555C10.8067 12.2449 9.41932 12.6663 8.00001 12.6663C6.58071 12.6663 5.19336 12.2449 4.01386 11.4555C2.83435 10.666 1.91581 9.54415 1.37468 8.23206Z" stroke="#292524" stroke-width="1.5" stroke-linecap="round" stroke-linejoin="round"/>
<path d="M8 9.99998C9.10457 9.99998 10 9.10455 10 7.99998C10 6.89541 9.10457 5.99998 8 5.99998C6.89543 5.99998 6 6.89541 6 7.99998C6 9.10455 6.89543 9.99998 8 9.99998Z" stroke="#292524" stroke-width="1.5" stroke-linecap="round" stroke-linejoin="round"/>
</svg>
