<svg width="172" height="40" viewBox="0 0 172 40" fill="none" xmlns="http://www.w3.org/2000/svg">
<g filter="url(#filter0_d_543_8870)">
<path d="M26.6787 3.96543C28.5626 7.65917 29.625 11.8419 29.625 16.2727C29.625 20.7035 28.5626 24.8863 26.6787 28.58C31.0398 26.2084 34 21.5863 34 16.2727C34 10.9592 31.0399 6.33708 26.6787 3.96543Z" fill="url(#paint0_linear_543_8870)"/>
<path d="M20.3834 3.67183C19.7501 2.77478 18.6714 2.29166 17.5895 2.47941C11.0062 3.62188 6 9.36265 6 16.2727C6 23.1827 11.0062 28.9234 17.5895 30.0659C18.6713 30.2537 19.7501 29.7706 20.3833 28.8735C22.8979 25.3113 24.375 20.9645 24.375 16.2726C24.375 11.5808 22.8979 7.234 20.3834 3.67183Z" fill="url(#paint1_linear_543_8870)"/>
<path d="M45.2912 23V9.90909H47.6626V21.0121H53.4283V23H45.2912ZM66.6742 16.4545C66.6742 17.8651 66.41 19.0732 65.8816 20.0788C65.3574 21.0803 64.6415 21.8473 63.7338 22.38C62.8304 22.9126 61.8056 23.179 60.6593 23.179C59.513 23.179 58.486 22.9126 57.5783 22.38C56.6749 21.843 55.959 21.0739 55.4306 20.0724C54.9064 19.0668 54.6444 17.8608 54.6444 16.4545C54.6444 15.044 54.9064 13.8381 55.4306 12.8366C55.959 11.831 56.6749 11.0618 57.5783 10.5291C58.486 9.99645 59.513 9.73011 60.6593 9.73011C61.8056 9.73011 62.8304 9.99645 63.7338 10.5291C64.6415 11.0618 65.3574 11.831 65.8816 12.8366C66.41 13.8381 66.6742 15.044 66.6742 16.4545ZM64.29 16.4545C64.29 15.4616 64.1344 14.6243 63.8233 13.9425C63.5165 13.2564 63.0904 12.7386 62.5449 12.3892C61.9995 12.0355 61.3709 11.8587 60.6593 11.8587C59.9476 11.8587 59.3191 12.0355 58.7736 12.3892C58.2282 12.7386 57.7999 13.2564 57.4888 13.9425C57.182 14.6243 57.0286 15.4616 57.0286 16.4545C57.0286 17.4474 57.182 18.2869 57.4888 18.973C57.7999 19.6548 58.2282 20.1726 58.7736 20.5263C59.3191 20.8757 59.9476 21.0504 60.6593 21.0504C61.3709 21.0504 61.9995 20.8757 62.5449 20.5263C63.0904 20.1726 63.5165 19.6548 63.8233 18.973C64.1344 18.2869 64.29 17.4474 64.29 16.4545ZM67.7608 11.897V9.90909H78.2054V11.897H74.1593V23H71.807V11.897H67.7608ZM88.4711 9.90909H90.8425V18.4616C90.8425 19.3991 90.6209 20.2237 90.1777 20.9354C89.7388 21.647 89.1209 22.2031 88.324 22.6037C87.5272 23 86.5961 23.1982 85.5307 23.1982C84.4611 23.1982 83.5279 23 82.731 22.6037C81.9341 22.2031 81.3162 21.647 80.8773 20.9354C80.4384 20.2237 80.2189 19.3991 80.2189 18.4616V9.90909H82.5904V18.2635C82.5904 18.8089 82.7097 19.2947 82.9483 19.7209C83.1912 20.147 83.5321 20.4815 83.9711 20.7244C84.41 20.9631 84.9299 21.0824 85.5307 21.0824C86.1316 21.0824 86.6515 20.9631 87.0904 20.7244C87.5336 20.4815 87.8745 20.147 88.1131 19.7209C88.3517 19.2947 88.4711 18.8089 88.4711 18.2635V9.90909ZM100.534 13.5078C100.475 12.9496 100.223 12.5149 99.7802 12.2038C99.3413 11.8928 98.7702 11.7372 98.0671 11.7372C97.5728 11.7372 97.1488 11.8118 96.7951 11.9609C96.4414 12.1101 96.1708 12.3125 95.9833 12.5682C95.7958 12.8239 95.6999 13.1158 95.6957 13.4439C95.6957 13.7166 95.7575 13.9531 95.881 14.1534C96.0089 14.3537 96.1815 14.5241 96.3988 14.6648C96.6161 14.8011 96.8569 14.9162 97.1211 15.0099C97.3853 15.1037 97.6516 15.1825 97.9201 15.2464L99.1474 15.5533C99.6417 15.6683 100.117 15.8239 100.573 16.0199C101.033 16.2159 101.444 16.4631 101.806 16.7614C102.173 17.0597 102.463 17.4197 102.676 17.8416C102.889 18.2635 102.995 18.7578 102.995 19.3246C102.995 20.0916 102.799 20.767 102.407 21.3509C102.015 21.9304 101.449 22.3842 100.707 22.7124C99.9698 23.0362 99.0771 23.1982 98.0288 23.1982C97.0103 23.1982 96.1261 23.0405 95.3761 22.7251C94.6303 22.4098 94.0465 21.9496 93.6246 21.3445C93.207 20.7393 92.9812 20.0021 92.9471 19.1328H95.2802C95.3143 19.5888 95.4549 19.968 95.7021 20.2706C95.9492 20.5732 96.271 20.799 96.6673 20.9482C97.0678 21.0973 97.5153 21.1719 98.0096 21.1719C98.5252 21.1719 98.9769 21.0952 99.3647 20.9418C99.7567 20.7841 100.064 20.5668 100.285 20.2898C100.507 20.0085 100.62 19.6804 100.624 19.3054C100.62 18.9645 100.52 18.6832 100.324 18.4616C100.127 18.2358 99.8526 18.0483 99.4989 17.8991C99.1495 17.7457 98.7404 17.6094 98.2717 17.4901L96.7823 17.1065C95.7042 16.8295 94.8519 16.4098 94.2255 15.8473C93.6033 15.2805 93.2923 14.5284 93.2923 13.5909C93.2923 12.8196 93.5011 12.1442 93.9187 11.5646C94.3406 10.9851 94.9137 10.5355 95.6381 10.2159C96.3626 9.89204 97.1829 9.73011 98.0991 9.73011C99.0281 9.73011 99.842 9.89204 100.541 10.2159C101.244 10.5355 101.796 10.9808 102.196 11.5518C102.597 12.1186 102.804 12.7706 102.816 13.5078H100.534ZM111.556 9.90909L114.439 14.7031H114.541L117.437 9.90909H120.14L116.107 16.4545L120.204 23H117.456L114.541 18.2379H114.439L111.524 23H108.788L112.924 16.4545L108.839 9.90909H111.556ZM122.002 23V9.90909H126.911C127.917 9.90909 128.761 10.0966 129.442 10.4716C130.129 10.8466 130.646 11.3622 130.996 12.0185C131.349 12.6705 131.526 13.4119 131.526 14.2429C131.526 15.0824 131.349 15.8281 130.996 16.4801C130.642 17.1321 130.12 17.6456 129.43 18.0206C128.739 18.3913 127.889 18.5767 126.879 18.5767H123.626V16.6271H126.56C127.148 16.6271 127.629 16.5249 128.004 16.3203C128.379 16.1158 128.656 15.8345 128.835 15.4766C129.018 15.1186 129.11 14.7074 129.11 14.2429C129.11 13.7784 129.018 13.3693 128.835 13.0156C128.656 12.6619 128.377 12.3871 127.998 12.1911C127.623 11.9908 127.139 11.8906 126.547 11.8906H124.374V23H122.002ZM133.586 23V9.90909H142.1V11.897H135.958V15.451H141.659V17.4389H135.958V21.0121H142.151V23H133.586ZM144.52 23V9.90909H149.429C150.434 9.90909 151.278 10.0838 151.96 10.4332C152.646 10.7827 153.164 11.2727 153.513 11.9034C153.867 12.5298 154.044 13.2607 154.044 14.0959C154.044 14.9354 153.865 15.6641 153.507 16.282C153.153 16.8956 152.631 17.3707 151.941 17.7074C151.251 18.0398 150.403 18.206 149.397 18.206H145.9V16.2372H149.077C149.665 16.2372 150.147 16.1562 150.522 15.9943C150.897 15.8281 151.174 15.5874 151.353 15.272C151.536 14.9524 151.628 14.5604 151.628 14.0959C151.628 13.6314 151.536 13.2351 151.353 12.907C151.17 12.5746 150.89 12.3232 150.515 12.1527C150.14 11.978 149.657 11.8906 149.064 11.8906H146.891V23H144.52ZM151.282 17.0682L154.523 23H151.877L148.694 17.0682H151.282ZM155.651 11.897V9.90909H166.096V11.897H162.05V23H159.698V11.897H155.651Z" fill="black"/>
</g>
<defs>
<filter id="filter0_d_543_8870" x="0" y="0" width="176" height="40" filterUnits="userSpaceOnUse" color-interpolation-filters="sRGB">
<feFlood flood-opacity="0" result="BackgroundImageFix"/>
<feColorMatrix in="SourceAlpha" type="matrix" values="0 0 0 0 0 0 0 0 0 0 0 0 0 0 0 0 0 0 127 0" result="hardAlpha"/>
<feOffset dy="4"/>
<feGaussianBlur stdDeviation="2"/>
<feComposite in2="hardAlpha" operator="out"/>
<feColorMatrix type="matrix" values="0 0 0 0 0 0 0 0 0 0 0 0 0 0 0 0 0 0 0.25 0"/>
<feBlend mode="normal" in2="BackgroundImageFix" result="effect1_dropShadow_543_8870"/>
<feBlend mode="normal" in="SourceGraphic" in2="effect1_dropShadow_543_8870" result="shape"/>
</filter>
<linearGradient id="paint0_linear_543_8870" x1="15.1875" y1="2.43915" x2="15.1875" y2="30.1059" gradientUnits="userSpaceOnUse">
<stop stop-color="#997CE4"/>
<stop offset="1" stop-color="#E91E63"/>
</linearGradient>
<linearGradient id="paint1_linear_543_8870" x1="15.1875" y1="2.43915" x2="15.1875" y2="30.1059" gradientUnits="userSpaceOnUse">
<stop stop-color="#997CE4"/>
<stop offset="1" stop-color="#E91E63"/>
</linearGradient>
</defs>
</svg>
