<svg width="18" height="18" viewBox="0 0 18 18" fill="none" xmlns="http://www.w3.org/2000/svg">
<path d="M1.5 1.5V14.8333C1.5 15.2754 1.67559 15.6993 1.98816 16.0118C2.30072 16.3244 2.72464 16.5 3.16667 16.5H16.5M12.3333 3.16667H14C14.4602 3.16667 14.8333 3.53976 14.8333 4V12.3333C14.8333 12.7936 14.4602 13.1667 14 13.1667H12.3333C11.8731 13.1667 11.5 12.7936 11.5 12.3333V4C11.5 3.53976 11.8731 3.16667 12.3333 3.16667ZM5.66667 5.66667H7.33333C7.79357 5.66667 8.16667 6.03976 8.16667 6.5V12.3333C8.16667 12.7936 7.79357 13.1667 7.33333 13.1667H5.66667C5.20643 13.1667 4.83333 12.7936 4.83333 12.3333V6.5C4.83333 6.03976 5.20643 5.66667 5.66667 5.66667Z" stroke="#292524" stroke-width="1.6" stroke-linecap="round" stroke-linejoin="round"/>
</svg>
