<svg width="18" height="20" viewBox="0 0 18 20" fill="none" xmlns="http://www.w3.org/2000/svg">
<path d="M16.5 4.16675C16.5 5.54746 13.1421 6.66675 9 6.66675C4.85786 6.66675 1.5 5.54746 1.5 4.16675M16.5 4.16675C16.5 2.78604 13.1421 1.66675 9 1.66675C4.85786 1.66675 1.5 2.78604 1.5 4.16675M16.5 4.16675V15.8334C16.5 16.4965 15.7098 17.1323 14.3033 17.6012C12.8968 18.07 10.9891 18.3334 9 18.3334C7.01088 18.3334 5.10322 18.07 3.6967 17.6012C2.29018 17.1323 1.5 16.4965 1.5 15.8334V4.16675M1.5 10.0001C1.5 10.6631 2.29018 11.299 3.6967 11.7678C5.10322 12.2367 7.01088 12.5001 9 12.5001C10.9891 12.5001 12.8968 12.2367 14.3033 11.7678C15.7098 11.299 16.5 10.6631 16.5 10.0001" stroke="#292524" stroke-width="1.6" stroke-linecap="round" stroke-linejoin="round"/>
</svg>
