<svg width="20" height="20" viewBox="0 0 20 20" fill="none" xmlns="http://www.w3.org/2000/svg">
<path d="M18.3327 14.7083L10.691 18.175C10.4739 18.274 10.238 18.3253 9.99935 18.3253C9.76069 18.3253 9.52482 18.274 9.30768 18.175L1.66602 14.7083M18.3327 10.5416L10.691 14.0083C10.4739 14.1073 10.238 14.1586 9.99935 14.1586C9.76069 14.1586 9.52482 14.1073 9.30768 14.0083L1.66602 10.5416M10.691 1.8168C10.4739 1.71776 10.238 1.6665 9.99932 1.6665C9.76066 1.6665 9.52479 1.71776 9.30765 1.8168L2.16599 5.0668C2.01811 5.132 1.89238 5.2388 1.80412 5.37418C1.71586 5.50956 1.66886 5.66769 1.66886 5.8293C1.66886 5.99091 1.71586 6.14904 1.80412 6.28442C1.89238 6.4198 2.01811 6.5266 2.16599 6.5918L9.31599 9.85013C9.53312 9.94918 9.769 10.0004 10.0077 10.0004C10.2463 10.0004 10.4822 9.94918 10.6993 9.85013L17.8493 6.60013C17.9972 6.53493 18.1229 6.42814 18.2112 6.29275C18.2994 6.15737 18.3464 5.99925 18.3464 5.83763C18.3464 5.67602 18.2994 5.5179 18.2112 5.38251C18.1229 5.24713 17.9972 5.14034 17.8493 5.07513L10.691 1.8168Z" stroke="#292524" stroke-width="1.6" stroke-linecap="round" stroke-linejoin="round"/>
</svg>
