<svg width="18" height="18" viewBox="0 0 18 18" fill="none" xmlns="http://www.w3.org/2000/svg">
<path d="M1.5 1.5V14.8333C1.5 15.2754 1.67559 15.6993 1.98816 16.0118C2.30072 16.3244 2.72464 16.5 3.16667 16.5H16.5M5.66667 9.83333H11.5C11.9602 9.83333 12.3333 10.2064 12.3333 10.6667V12.3333C12.3333 12.7936 11.9602 13.1667 11.5 13.1667H5.66667C5.20643 13.1667 4.83333 12.7936 4.83333 12.3333V10.6667C4.83333 10.2064 5.20643 9.83333 5.66667 9.83333ZM5.66667 3.16667H14C14.4602 3.16667 14.8333 3.53976 14.8333 4V5.66667C14.8333 6.1269 14.4602 6.5 14 6.5H5.66667C5.20643 6.5 4.83333 6.1269 4.83333 5.66667V4C4.83333 3.53976 5.20643 3.16667 5.66667 3.16667Z" stroke="#292524" stroke-width="1.6" stroke-linecap="round" stroke-linejoin="round"/>
</svg>
