<svg width="16" height="20" viewBox="0 0 16 20" fill="none" xmlns="http://www.w3.org/2000/svg">
<path d="M5.49967 18.3333V15H10.4997V18.3333M4.66634 4.99996H4.67467M11.333 4.99996H11.3413M7.99967 4.99996H8.00801M7.99967 8.33329H8.00801M7.99967 11.6666H8.00801M11.333 8.33329H11.3413M11.333 11.6666H11.3413M4.66634 8.33329H4.67467M4.66634 11.6666H4.67467M2.99967 1.66663H12.9997C13.9201 1.66663 14.6663 2.41282 14.6663 3.33329V16.6666C14.6663 17.5871 13.9201 18.3333 12.9997 18.3333H2.99967C2.0792 18.3333 1.33301 17.5871 1.33301 16.6666V3.33329C1.33301 2.41282 2.0792 1.66663 2.99967 1.66663Z" stroke="#292524" stroke-width="1.6" stroke-linecap="round" stroke-linejoin="round"/>
</svg>
